<?xml version="1.0" standalone="no"?>
<!DOCTYPE svg PUBLIC "-//W3C//DTD SVG 1.1//EN" "http://www.w3.org/Graphics/SVG/1.1/DTD/svg11.dtd">
<svg xmlns="http://www.w3.org/2000/svg"><metadata>This SVG WebFont was generated by YouWorkForThem.
Copyright (c) Ian Lynam, 2013. All rights reserved.</metadata><defs><font horiz-adv-x="1187" id="ywftsvg"><font-face ascent="1638" bbox="-162 -606 2607 1919.02" cap-height="1456" descent="-410" font-family="" font-stretch="normal" font-weight="100" panose-1="2 0 5 3 5 0 0 2 0 4" underline-position="0" underline-thickness="0" unicode-range="U+0020-FB02" units-per-em="2048" x-height="1032"/><missing-glyph horiz-adv-x="1536"/><glyph glyph-name=".notdef" horiz-adv-x="1536"/><glyph glyph-name="glyph1" horiz-adv-x="0"/><glyph glyph-name="glyph2" horiz-adv-x="681"/><glyph glyph-name="space" horiz-adv-x="544" unicode=" "/><glyph d="M211 0v154h131v-154h-131zM311 436h-69q-18 664 -19 1020h107q-1 -309 -19 -1020z" glyph-name="exclam" horiz-adv-x="526" unicode="!"/><glyph d="M168 936l-18 516h104q-5 -213 -23 -516h-63zM465 1452h102q0 -110 -9 -282t-9 -198t-2 -36h-64q-18 313 -18 516z" glyph-name="quotedbl" horiz-adv-x="753" unicode="&quot;"/><glyph d="M952 940h-440l-74 -471h441zM1290 1012v-72h-258l-71 -471h258v-70h-269l-63 -399h-80l61 399h-438q-43 -284 -61 -399h-82l61 399h-242v70h252l72 471h-252v72h264q59 374 62 395h80l-62 -395h441q25 198 59 395h82l-60 -395h246z" glyph-name="numbersign" horiz-adv-x="1390" unicode="#"/><glyph d="M211 1071q0 -127 87 -195t257 -94v588q-156 -8 -250 -90t-94 -209zM981 385q0 133 -83 206t-271 91v-619q160 13 257 101t97 221zM1071 388q0 -178 -125 -284t-319 -116v-191h-72v191q-203 10 -333 118t-142 291h88q14 -151 116 -235t271 -99v631q-211 29 -322 113 t-111 257t127 272q126 99 306 112v180h72v-180q190 -12 305 -124t133 -257l-94 -2q-45 274 -344 303v-596q219 -20 331 -112t113 -272z" glyph-name="dollar" unicode="$"/><glyph d="M430 731q233 0 234 328q0 155 -58 241t-178 86q-236 0 -236 -328t238 -327zM1421 39q236 0 236 328t-236 327q-119 0 -177 -86t-58 -240t58 -242q58 -87 177 -87zM1422 -35q-154 0 -238 110t-84 293q0 182 85 292t237 110t238 -108q85 -108 85 -293q0 -184 -84 -294 t-239 -110zM430 655q-154 0 -239 109t-85 294t84 295q84 109 238 109t239 -108t85 -294q0 -185 -84 -295t-238 -110zM1409 1421q4 8 8 13l6 -17q-6 0 -14 4zM438 10q695 1112 891 1432q9 -2 23 -5t28 -9t29 -7q-49 -80 -193 -311q-145 -231 -337 -542t-361 -578 q-23 8 -80 20z" glyph-name="percent" horiz-adv-x="1857" unicode="%"/><glyph d="M838 1169q0 105 -66 167t-171 62t-169 -62t-63 -169q-1 -57 29 -118t56 -94t87 -105l12 -2q220 125 263 217q22 47 22 104zM229 368q1 -136 95 -227q94 -90 270 -90q228 0 367 174v13q-51 61 -441 505q-141 -79 -216 -159t-75 -216zM588 -31q-219 0 -337 112 q-118 113 -118 277t86 262t248 185q-98 111 -144 189q-47 78 -47 190q0 110 94 199t235 89t231 -86t90 -210q0 -59 -33 -148q-10 -26 -43 -60t-47 -49q-15 -15 -65 -49t-64 -41q-14 -8 -76 -45q223 -244 416 -479q57 108 75 261q5 50 11 161h86q-23 -340 -113 -487l209 -240 h-113q-82 98 -145 166q-170 -197 -436 -197z" glyph-name="ampersand" horiz-adv-x="1370" unicode="&amp;"/><glyph d="M166 936q0 76 -19 315q0 133 -2 201h105q-2 -70 -2 -201l-19 -315h-63z" glyph-name="quotesingle" horiz-adv-x="397" unicode="'"/><glyph d="M147 642q0 246 73 486t210 418h74q-264 -410 -264 -903t262 -903l-72 -2q-137 180 -210 419t-73 485z" glyph-name="parenleft" horiz-adv-x="548" unicode="("/><glyph d="M401 642q1 -248 -73 -486t-211 -418h-76q266 416 266 908t-264 900h74q139 -178 211 -418t73 -486z" glyph-name="parenright" horiz-adv-x="548" unicode=")"/><glyph d="M500 1092q211 78 325 114q17 -36 25 -61l-334 -101q64 -78 209 -276q-9 -6 -29 -19t-28 -22l-195 289q-184 -270 -197 -289q-27 18 -55 41l213 276q-180 55 -336 101q3 11 25 61l326 -112q0 90 -9 346h68z" glyph-name="asterisk" horiz-adv-x="931" unicode="*"/><glyph d="M1159 616h-465v-507h-82v507h-465v82h465v490h82v-490h465v-82z" glyph-name="plus" horiz-adv-x="1306" unicode="+"/><glyph d="M150 0v209h139v-219q-15 -155 -107 -264q-27 12 -53 22q68 100 76 252h-55z" glyph-name="comma" horiz-adv-x="479" unicode=","/><glyph d="M711 559h-576v90h576v-90z" glyph-name="hyphen" horiz-adv-x="843" unicode="-"/><glyph d="M313 0h-151v168h151v-168z" glyph-name="period" horiz-adv-x="475" unicode="."/><glyph d="M-162 -12l912 1456h88l-906 -1456h-94z" glyph-name="slash" horiz-adv-x="677" unicode="/"/><glyph d="M975 709q0 659 -371 659q-195 0 -287 -137q-41 -61 -73 -180t-33 -299q0 -180 14 -286q35 -266 172 -361q80 -54 197 -54q234 0 313 208q68 173 68 450zM596 1452q475 0 475 -742t-478 -741q-478 -1 -478 741t481 742z" glyph-name="zero" unicode="0"/><glyph d="M721 0h-94v1321q-100 -66 -385 -252v90q63 45 191 131l192 129h96v-1419z" glyph-name="one" unicode="1"/><glyph d="M1040 0h-858v98q26 23 228 243t241 253q268 240 269 477q0 143 -83 220t-233 77q-284 0 -336 -291h-88q20 163 129 269t298 106t299 -101t110 -270q0 -272 -299 -542q-13 -11 -203 -215t-233 -236h759v-88z" glyph-name="two" unicode="2"/><glyph d="M1024 381q0 -184 -122 -298t-332 -114t-324 115q-113 115 -121 289h88q31 -322 365 -322q168 0 259 86t91 245t-90 238t-252 78h-115v84h115q145 0 228 78t83 217t-88 215t-231 76q-305 0 -353 -283h-90q6 155 127 261q122 106 314 106t305 -100t112 -260 q0 -246 -248 -344q135 -46 207 -142t72 -225z" glyph-name="three" unicode="3"/><glyph d="M803 457v837l-606 -837h606zM903 1415v-958h182v-68h-182v-389h-100v389h-688v74q226 320 678 952h110z" glyph-name="four" unicode="4"/><glyph d="M985 1419v-86h-674l-39 -590q136 158 350 158t320 -127t107 -339q0 -212 -116 -340t-321 -128q-204 -1 -320 105t-132 284h90q39 -307 356 -307q170 1 258 103t88 282t-82 284t-252 105q-209 0 -327 -147h-105q4 87 45 743h754z" glyph-name="five" unicode="5"/><glyph d="M616 49q168 0 263 109q94 108 94 278t-84 280t-252 110t-268 -103q-101 -102 -101 -269t90 -286t258 -119zM633 1368q-385 0 -397 -733q133 268 397 268q215 0 323 -129t109 -335q0 -206 -123 -338t-330 -132q-467 0 -467 695q0 376 120 582t368 206q172 0 273 -89 t126 -243h-90q-53 248 -309 248z" glyph-name="six" unicode="6"/><glyph d="M106 1331v88h908v-102q-343 -682 -576 -1317h-102q287 739 588 1331h-818z" glyph-name="seven" unicode="7"/><glyph d="M936 1068q0 142 -90 225t-252 83t-252 -83t-90 -224t91 -220t254 -79t251 78t88 220zM596 47q178 0 278 87t99 238q-1 152 -99 236t-281 84t-279 -85t-97 -237q0 -152 100 -237q101 -86 279 -86zM1069 371q0 -186 -129 -294t-346 -108t-346 108t-129 294q0 131 89 227 t208 133q-113 37 -186 129t-72 211q0 174 116 278q117 103 321 103q203 0 319 -103t116 -278q0 -119 -73 -209t-183 -127q119 -37 207 -135t88 -229z" glyph-name="eight" unicode="8"/><glyph d="M911 970q0 168 -89 284t-257 116t-261 -108t-93 -280q0 -170 84 -278t252 -108t266 103t98 271zM565 49q181 0 257 111q40 57 64 113q52 121 52 485q-54 -106 -160 -174t-227 -68q-215 0 -324 130t-108 335q0 205 122 338t328 133q463 0 463 -707q0 -365 -71 -516 q-33 -70 -82 -132q-101 -128 -314 -128q-173 0 -281 86t-126 242h94q37 -248 313 -248z" glyph-name="nine" unicode="9"/><glyph d="M145 4v203h205v-203h-205zM145 862v203h205v-203h-205z" glyph-name="colon" horiz-adv-x="501" unicode=":"/><glyph d="M145 862v203h205v-203h-205zM152 0v209h188v-219q-15 -155 -107 -264q-25 13 -51 22q66 102 74 252h-104z" glyph-name="semicolon" horiz-adv-x="501" unicode=";"/><glyph d="M952 76q-362 249 -811 563v76q270 176 811 532v-94l-741 -473q336 -236 743 -518q0 -14 -1 -43t-1 -43z" glyph-name="less" horiz-adv-x="1105" unicode="&lt;"/><glyph d="M1114 829h-911v82h911v-82zM1114 348h-911v86h911v-86z" glyph-name="equal" horiz-adv-x="1316" unicode="="/><glyph d="M952 682v-76q-135 -88 -405 -265t-406 -265v92l742 473q-195 139 -744 518q0 14 1 43t1 45q319 -223 811 -565z" glyph-name="greater" horiz-adv-x="1105" unicode=">"/><glyph d="M418 0v156h137v-156h-137zM532 416h-92q2 141 56 222q53 81 178 183q145 117 145 285q0 135 -82 215q-81 80 -231 80t-232 -71t-102 -220h-98q18 164 132 269t302 105t299 -104q111 -106 111 -266q0 -117 -58 -209t-182 -198q-59 -57 -83 -86q-63 -76 -63 -205z" glyph-name="question" horiz-adv-x="1005" unicode="?"/><glyph d="M645 496q0 -162 65 -240t175 -78q61 0 112 20t79 43q63 54 104 181v2q10 37 20 123t10 121q-8 98 -67 165t-172 66q-143 0 -235 -121q-92 -120 -91 -282zM1262 319q0 -63 34 -102t95 -39q141 0 229 141t88 369q0 299 -198 472t-530 173t-546 -229q-213 -229 -213 -600 q0 -326 202 -530t521 -205q180 1 303 37t232 114l34 -41q-117 -102 -249 -145t-328 -43q-352 0 -581 223q-228 223 -228 582q0 221 72 399q135 333 472 461q155 59 326 59q344 0 572 -192q227 -193 227 -523q0 -254 -110 -422t-304 -167q-78 0 -130 47t-66 133 q-121 -184 -307 -185q-150 0 -238 104t-88 259q0 213 118 358t301 145t265 -169q33 82 57 149h49q-81 -613 -81 -633z" glyph-name="at" horiz-adv-x="1906" unicode="@"/><glyph d="M973 510l-328 844l-323 -844h651zM29 0l565 1456h108q191 -485 568 -1456h-96l-164 420h-725q-80 -213 -160 -420h-96z" glyph-name="A" horiz-adv-x="1298" unicode="A"/><glyph d="M293 807h399q186 0 282 66q95 67 95 223q0 276 -389 276h-387v-565zM293 86h407q203 0 305 75q101 75 101 240q0 315 -404 316h-409v-631zM197 0v1456h485q236 0 358 -95t123 -257q0 -250 -256 -340q154 -43 227 -139t72 -222q0 -195 -134 -299t-370 -104h-505z" glyph-name="B" horiz-adv-x="1314" unicode="B"/><glyph d="M326 1190q-107 -194 -107 -464t107 -460q55 -98 154 -154t235 -57q201 1 311 105t137 282h97q-28 -211 -172 -342t-373 -131q-299 0 -448 212q-148 212 -148 545t153 548q154 215 441 215q225 0 364 -130t174 -337l-98 -2q-33 178 -143 280q-111 102 -297 103 q-133 0 -233 -57q-100 -56 -154 -156z" glyph-name="C" horiz-adv-x="1363" unicode="C"/><glyph d="M293 88h369q518 0 518 641t-498 641h-389v-1282zM197 0v1456h485q460 0 568 -441q32 -126 32 -282q0 -325 -152 -529t-473 -204h-460z" glyph-name="D" horiz-adv-x="1400" unicode="D"/><glyph d="M1133 0h-934v1456h917v-86h-821v-563h752v-90h-752v-627h838v-90z" glyph-name="E" horiz-adv-x="1232" unicode="E"/><glyph d="M1085 1370h-788v-590h725v-88h-725v-692h-98v1456h886v-86z" glyph-name="F" horiz-adv-x="1163" unicode="F"/><glyph d="M223 716q0 -251 119 -447q60 -97 164 -154t242 -58q428 0 428 600h-435v84h525v-741h-37l-53 291q-37 -152 -164 -235t-273 -87q-161 1 -283 61q-221 110 -298 405q-35 132 -35 290q0 320 146 537q73 106 191 166t269 61q215 0 352 -114t172 -302h-92q-27 160 -138 245 q-112 85 -309 85t-325 -139q-166 -183 -166 -548z" glyph-name="G" horiz-adv-x="1421" unicode="G"/><glyph d="M1243 0h-98v717h-850v-717h-98v1456h98v-647h850v647h98v-1456z" glyph-name="H" horiz-adv-x="1439" unicode="H"/><glyph d="M301 0h-96v1456h96v-1456z" glyph-name="I" horiz-adv-x="505" unicode="I"/><glyph d="M829 1456h99v-1022q0 -221 -112 -343t-316 -122t-321 116q-116 116 -132 323h96q33 -352 351 -353q180 -1 258 97t77 288v1016z" glyph-name="J" horiz-adv-x="1107" unicode="J"/><glyph d="M295 0h-98v1456h98v-858l811 858h111l-506 -541l567 -915h-115l-522 850l-346 -371v-479z" glyph-name="K" horiz-adv-x="1323" unicode="K"/><glyph d="M1079 0h-880v1456h98v-1366h782v-90z" glyph-name="L" horiz-adv-x="1122" unicode="L"/><glyph d="M287 0h-92v1456h139q104 -260 310 -759t239 -580l547 1339h137v-1456h-92v1288l-19 4q-299 -733 -532 -1282h-90q-418 1004 -529 1272l-18 -4v-1278z" glyph-name="M" horiz-adv-x="1761" unicode="M"/><glyph d="M1266 0h-113l-860 1321v-1321h-96v1456h114l860 -1317v1317h95v-1456z" glyph-name="N" horiz-adv-x="1462" unicode="N"/><glyph d="M1229 729q0 345 -160 531q-55 63 -144 102t-202 39t-202 -39q-302 -132 -302 -633q0 -222 65 -378q120 -296 453 -296q127 -1 229 57t158 157q105 189 105 460zM119 727q0 314 142 531q71 108 190 169t299 61t320 -106q259 -197 259 -651q0 -401 -202 -609 q-149 -153 -401 -153q-254 0 -404 150q-203 203 -203 608z" glyph-name="O" horiz-adv-x="1447" unicode="O"/><glyph d="M293 688h387q403 0 403 344q0 174 -98 257t-305 83h-387v-684zM199 0v1456h483q254 0 377 -110t123 -313t-124 -317t-378 -114h-387v-602h-94z" glyph-name="P" horiz-adv-x="1265" unicode="P"/><glyph d="M1227 729q0 264 -106 458q-54 99 -155 156q-100 57 -228 57t-217 -38q-302 -132 -302 -633q0 -352 157 -531q123 -143 349 -143q154 0 283 86l-242 295h108l197 -239q156 174 156 532zM119 754q0 184 59 351q60 167 200 275t346 109q206 -1 345 -107q260 -199 260 -651 q0 -408 -196 -604q25 -33 95 -121t107 -135h-104l-166 199q-152 -100 -325 -100q-334 -1 -483 227q-138 207 -138 557z" glyph-name="Q" horiz-adv-x="1447" unicode="Q"/><glyph d="M293 723h403q395 0 396 330q0 159 -98 239t-308 80h-393v-649zM197 0v1456h491q260 0 381 -110t121 -293q0 -141 -75 -241t-218 -144q43 -94 149 -320t160 -348h-108l-293 641h-512v-641h-96z" glyph-name="R" horiz-adv-x="1308" unicode="R"/><glyph d="M664 53q196 0 303 89q106 89 106 239q0 115 -75 196t-230 105q-306 38 -416 84t-159 126q-50 79 -52 206q1 184 145 287t359 103t347 -108q132 -109 163 -270h-98q-76 293 -416 293q-186 0 -295 -80q-108 -80 -108 -213t68 -203q68 -69 344 -106t402 -135t126 -286 t-144 -300q-144 -111 -374 -111q-232 1 -382 107t-178 309h99q31 -162 149 -247q120 -85 316 -85z" glyph-name="S" horiz-adv-x="1294" unicode="S"/><glyph d="M1114 1370h-491v-1370h-97v1370h-491v86h1079v-86z" glyph-name="T" horiz-adv-x="1148" unicode="T"/><glyph d="M1223 551q0 -283 -133 -433q-134 -150 -390 -149q-256 0 -389 151t-133 435v901h98v-907q0 -494 425 -494t425 494v907h97v-905z" glyph-name="U" horiz-adv-x="1402" unicode="U"/><glyph d="M629 106l491 1350h101l-545 -1456h-101q-365 971 -544 1456h104z" glyph-name="V" horiz-adv-x="1251" unicode="V"/><glyph d="M905 1333l-383 -1333h-108q-61 244 -181 728q-119 484 -180 728h103l319 -1317q90 276 387 1303h99l385 -1301q72 256 319 1315h96l-360 -1456h-115z" glyph-name="W" horiz-adv-x="1814" unicode="W"/><glyph d="M606 821l430 635h101l-480 -706q301 -441 508 -750h-112l-453 680l-450 -680h-101l500 754q-92 139 -277 407q-184 268 -202 295h110z" glyph-name="X" horiz-adv-x="1212" unicode="X"/><glyph d="M629 0h-94v604q-282 478 -508 852h108l449 -768q110 186 450 768h99l-504 -852v-604z" glyph-name="Y" horiz-adv-x="1159" unicode="Y"/><glyph d="M1147 0h-1057v96l936 1276h-922v84h1029v-96l-938 -1272h952v-88z" glyph-name="Z" horiz-adv-x="1232" unicode="Z"/><glyph d="M535 -248h-334v1782h334v-74h-248v-1634h248v-74z" glyph-name="bracketleft" horiz-adv-x="589" unicode="["/><glyph d="M672 -14h-88q-63 174 -256 696t-297 809h88q63 -174 256 -696t297 -809z" glyph-name="backslash" horiz-adv-x="716" unicode="\"/><glyph d="M389 -248h-334v74h248v1634h-248v74h334v-1782z" glyph-name="bracketright" horiz-adv-x="589" unicode="]"/><glyph d="M152 739q205 410 366 725h98q68 -133 193 -381t174 -344h-102l-318 639q-222 -441 -315 -639h-96z" glyph-name="asciicircum" horiz-adv-x="1130" unicode="^"/><glyph d="M1016 -227h-977v80h977v-80z" glyph-name="underscore" horiz-adv-x="1054" unicode="_"/><glyph d="M537 1217l-271 247h197q146 -182 196 -247h-122z" glyph-name="grave" horiz-adv-x="1118" unicode="`"/><glyph d="M840 434v117q-392 -12 -497 -53q-106 -41 -131 -112q-15 -42 -15 -101q-1 -111 67 -171t197 -61q187 1 283 111t96 270zM553 1063q381 0 381 -383v-680h-47l-51 190q-54 -98 -156 -156t-244 -58t-238 80q-98 81 -98 218t86 223q117 114 505 127q58 1 149 1v80 q0 281 -282 281t-316 -204l-88 9q20 135 124 203t275 69z" glyph-name="a" horiz-adv-x="1112" unicode="a"/><glyph d="M629 981q-169 1 -267 -121t-98 -332t88 -344t268 -133q180 0 271 125q92 125 92 342t-93 340t-261 123zM176 0v1470h90v-628q142 221 364 221t336 -155q114 -154 114 -394t-118 -392t-335 -151q-103 -1 -197 53t-156 156l-53 -180h-45z" glyph-name="b" horiz-adv-x="1196" unicode="b"/><glyph d="M582 1063q162 0 270 -94t127 -248h-92q-23 119 -101 189t-192 71q-215 0 -298 -140t-83 -332t86 -325t279 -133q134 -1 212 71t105 195h96q-29 -161 -137 -253t-279 -93q-223 0 -341 150q-118 151 -118 393t122 396q121 154 344 153z" glyph-name="c" horiz-adv-x="1091" unicode="c"/><glyph d="M565 51q165 0 265 126q100 127 100 335t-88 338t-268 131q-180 0 -271 -125q-92 -125 -92 -342t95 -340t259 -123zM1016 0h-55l-41 188q-60 -100 -156 -158t-209 -59q-213 0 -327 156q-114 155 -114 391t118 390q116 154 333 155q101 0 197 -54t164 -161v622h90v-1470z " glyph-name="d" horiz-adv-x="1193" unicode="d"/><glyph d="M579 987q-164 -1 -261 -111t-107 -298h711q-2 182 -90 296t-253 113zM580 47q268 0 323 227h92q-29 -139 -139 -221t-276 -82q-215 1 -339 149t-124 392t126 398q127 154 337 153q210 0 324 -142t114 -360l-2 -63h-809q4 -193 101 -322t272 -129z" glyph-name="e" horiz-adv-x="1124" unicode="e"/><glyph d="M541 1407q-203 0 -203 -211v-164h305v-76h-305v-956h-92v956h-187v76h187v164q0 133 78 211t206 78q89 0 146 -12l-10 -78q-55 12 -125 12z" glyph-name="f" horiz-adv-x="675" unicode="f"/><glyph d="M926 688q0 -156 -109 -251t-272 -95q-113 0 -211 49q-113 -45 -113 -139q0 -125 223 -125h228q172 0 274 -77q102 -76 102 -226t-134 -222q-136 -72 -345 -73q-262 0 -382 122q-67 69 -66 175q0 72 47 140t129 104q-63 20 -108 68q-44 48 -44 102q0 121 131 194 q-110 104 -110 261t107 253t257 96t254 -69q117 29 117 143q0 8 -8 29h63q10 -14 10 -59q0 -44 -38 -96q-39 -52 -90 -68q88 -80 88 -236zM967 -166q0 102 -80 158t-234 57h-274q-78 -17 -130 -75t-52 -137q0 -147 131 -195q105 -41 243 -41q396 0 396 233zM844 692 q0 127 -85 204t-214 77t-213 -77t-84 -204t84 -202q84 -74 213 -74t214 74t85 202z" glyph-name="g" horiz-adv-x="1138" unicode="g"/><glyph d="M176 0v1470h92v-647q49 117 158 178t225 62q174 0 263 -98t90 -277v-688h-93v670q-1 158 -65 234t-205 77q-199 0 -286 -137t-87 -361v-483h-92z" glyph-name="h" horiz-adv-x="1169" unicode="h"/><glyph d="M297 1315h-119v141h119v-141zM285 0h-92v1032h92v-1032z" glyph-name="i" horiz-adv-x="475" unicode="i"/><glyph d="M324 1315h-119v141h119v-141zM59 -410q-70 0 -151 21q2 14 8 80q70 -16 135 -17q170 0 170 205v1153h90v-1118q-2 -154 -55 -239t-197 -85z" glyph-name="j" horiz-adv-x="499" unicode="j"/><glyph d="M270 0h-92v1470h92v-1019q138 135 584 581h109l-363 -362q68 -111 209 -334t209 -336h-111l-372 606l-265 -264v-342z" glyph-name="k" horiz-adv-x="1054" unicode="k"/><glyph d="M180 0v1470h88v-1470h-88z" glyph-name="l" horiz-adv-x="495" unicode="l"/><glyph d="M1610 0h-92v684q0 158 -56 228t-190 69q-134 0 -234 -101t-100 -255v-625h-90v684q0 297 -246 297q-139 0 -237 -112t-99 -304v-565h-92v1032h45l53 -190q135 221 338 221q238 0 312 -232q133 231 362 232q162 0 244 -91t82 -263v-709z" glyph-name="m" horiz-adv-x="1769" unicode="m"/><glyph d="M176 0v1032h41l57 -194q139 225 377 225q174 0 263 -98t90 -277v-688h-93v670q-1 158 -65 234t-205 75q-195 0 -284 -129t-89 -350v-500h-92z" glyph-name="n" horiz-adv-x="1169" unicode="n"/><glyph d="M583 51q132 0 219 71t120 171t32 225q0 197 -89 330t-283 133q-100 0 -174 -40q-197 -107 -197 -441q0 -254 153 -378q87 -71 219 -71zM1049 520q0 -242 -122 -396t-346 -153q-224 0 -344 152q-120 153 -120 393t124 394t344 153q220 0 342 -151q122 -150 122 -392z" glyph-name="o" horiz-adv-x="1165" unicode="o"/><glyph d="M628 981q-164 0 -264 -125q-100 -124 -100 -332t87 -340t267 -133q180 0 273 127q92 127 92 343t-95 338t-260 122zM176 -410v1442h49l49 -186q60 102 156 160t207 57q217 0 330 -153q113 -152 113 -392t-118 -394t-333 -153q-105 1 -201 55t-162 158v-594h-90z" glyph-name="p" horiz-adv-x="1196" unicode="p"/><glyph d="M564 51q166 -1 266 121t100 331t-90 343t-266 135q-176 0 -270 -124q-93 -124 -93 -341t93 -341t260 -124zM926 -410v600q-140 -219 -362 -219t-336 157q-114 156 -114 392t118 390t335 153q97 0 193 -53t158 -158q35 119 51 180h47v-1442h-90z" glyph-name="q" horiz-adv-x="1193" unicode="q"/><glyph d="M178 0v1032h39l59 -207q109 221 365 222q33 0 51 -5q0 -45 -6 -88q-37 6 -78 7q-178 0 -258 -124t-80 -321v-516h-92z" glyph-name="r" horiz-adv-x="735" unicode="r"/><glyph d="M539 49q145 1 224 59t79 158q0 178 -215 207q-293 34 -391 106q-97 72 -97 200t112 206q111 78 277 78t264 -78t117 -207h-84q-39 205 -303 205q-147 0 -219 -56t-72 -157q0 -102 69 -134t335 -75q303 -49 303 -293q0 -135 -110 -216t-290 -81t-300 82q-118 82 -132 232 h93q39 -236 340 -236z" glyph-name="s" horiz-adv-x="1050" unicode="s"/><glyph d="M500 61q90 0 153 21l9 -76q-94 -25 -170 -24q-145 0 -200 86q-54 86 -54 239v649h-187v76h187v250q16 8 48 26t44 23v-299h311v-76h-311v-684q0 -211 170 -211z" glyph-name="t" horiz-adv-x="716" unicode="t"/><glyph d="M164 344v690h92v-667q0 -162 61 -238t203 -76t246 99q72 68 96 150t25 233v499h92v-1034h-51l-47 199q-68 -109 -166 -168t-207 -60q-344 0 -344 373z" glyph-name="u" horiz-adv-x="1157" unicode="u"/><glyph d="M498 98q246 645 362 934h94l-405 -1032h-105q-175 430 -413 1032h104z" glyph-name="v" horiz-adv-x="985" unicode="v"/><glyph d="M745 940q-204 -659 -294 -940h-115q-173 642 -281 1032h97l245 -952q100 324 299 942h107l295 -938q90 340 245 948h95l-283 -1032h-115z" glyph-name="w" horiz-adv-x="1492" unicode="w"/><glyph d="M487 598q91 128 316 440h98l-354 -497q67 -91 219 -311t160 -230h-107l-334 479q-205 -295 -331 -479h-103l377 543q-29 41 -160 220t-198 275h108z" glyph-name="x" horiz-adv-x="972" unicode="x"/><glyph d="M100 -322q49 -16 107 -16t82 14q25 14 37 22t26 31t24 35t23 46q14 34 22 50q7 17 23 62t27 68q-35 84 -230 551q-196 467 -206 491h96q164 -385 385 -938q23 57 178 465q156 408 180 473h97q-31 -84 -243 -622t-234 -596q-87 -232 -259 -232q-88 0 -147 19z" glyph-name="y" horiz-adv-x="999" unicode="y"/><glyph d="M891 0h-801v96l684 858h-676v78h772v-92l-682 -860h703v-80z" glyph-name="z" horiz-adv-x="964" unicode="z"/><glyph d="M281 4v410q1 80 -47 131t-136 55v84q94 14 139 56q44 42 44 128v412q0 254 254 254h61v-76h-43q-104 0 -145 -38t-41 -132v-434q0 -78 -41 -132t-111 -71v-20q70 -17 111 -69t41 -132v-399q1 -119 37 -162t149 -43h43v-76h-39q-137 0 -207 60t-69 194z" glyph-name="braceleft" horiz-adv-x="628" unicode="{"/><glyph d="M279 -248h-84v1782h84v-1782z" glyph-name="bar" horiz-adv-x="471" unicode="|"/><glyph d="M348 414v-410q0 -254 -256 -254h-61v76h43q118 0 152 43t34 162v399q0 80 41 132t111 69v20q-70 17 -111 71t-41 132v399q0 119 -34 162t-152 43h-43v76h61q256 0 256 -254v-412q0 -86 43 -128t139 -56l-2 -84q-86 -4 -133 -55t-47 -131z" glyph-name="braceright" horiz-adv-x="628" unicode="}"/><glyph d="M395 707q-143 0 -188 -156l-66 31q51 209 258 209q80 1 161 -47t154 -95q72 -47 140 -47t111 34t65 116l66 -27q-49 -209 -254 -209q-76 0 -157 47t-156 95t-134 49z" glyph-name="asciitilde" horiz-adv-x="1241" unicode="~"/><glyph glyph-name="uni00A0" horiz-adv-x="563" unicode=" "/><glyph d="M315 1038v-153h-131v153h131zM303 -418h-106q0 309 18 1020h70q18 -664 18 -1020z" glyph-name="exclamdown" horiz-adv-x="526" unicode="¡"/><glyph d="M264 709q0 -424 328 -461v926q-328 -41 -328 -465zM592 -8v174q-216 18 -320 164t-104 376t108 380t316 169v187h72v-187q154 -10 252 -104t120 -242h-92q-18 111 -89 182t-191 85v-928q122 12 194 87t92 185h97q-23 -152 -122 -246t-261 -108v-174h-72z" glyph-name="cent" unicode="¢"/><glyph d="M1073 0h-919v96q96 41 121 137q26 96 26 273l-8 186h-160v78h154q-12 164 -13 264q0 205 113 313q113 107 287 107t269 -95t112 -239h-88q-23 125 -93 190t-204 64q-303 0 -303 -340q0 -121 10 -264h432v-78h-424v-35l6 -145l2 -139q0 -189 -129 -283l809 -2v-88z" glyph-name="sterling" horiz-adv-x="1198" unicode="£"/><glyph d="M762 -29q-224 1 -362 147t-173 398h-161l10 74h143q-4 70 -4 128t6 111h-153l8 74h151q37 251 183 399t360 148q262 0 387 -221q-57 -39 -63 -45q-109 186 -326 186q-188 0 -300 -126t-140 -341h581l-24 -74h-566q-4 -69 -4 -119t4 -120h500l-24 -74h-469 q28 -211 140 -338t296 -127q129 0 207 49t133 158l61 -35q-115 -252 -401 -252z" glyph-name="currency" horiz-adv-x="1214" unicode="¤"/><glyph d="M850 631v-60h-221v-163h221v-62h-221v-346h-94v346h-256v62h256v163h-256v60h239q-139 236 -281 471q-141 235 -210 354h108l449 -768q110 186 450 768h99l-490 -825h207z" glyph-name="yen" horiz-adv-x="1159" unicode="¥"/><glyph d="M285 868h-90v664h90v-664zM285 -180h-90v676h90v-676z" glyph-name="brokenbar" horiz-adv-x="477" unicode="¦"/><glyph d="M815 404q0 66 -21 115q-22 48 -77 95l-266 236q-72 -39 -115 -98t-43 -121q0 -127 98 -215l266 -236q72 42 115 100t43 124zM891 410q0 -76 -47 -153t-135 -126q104 -117 104 -235t-92 -205h2q-96 -97 -246 -97t-241 97v-2q-96 96 -101 254h88q3 -119 65 -195t180 -76 t188 62q71 62 71 171q0 108 -106 199l-285 248q-119 104 -119 269q0 77 47 153t135 125q-104 117 -104 235t92 205h-2q96 97 246 97t241 -97v2q98 -96 101 -247h-88q-5 116 -67 190t-178 74t-188 -62q-71 -62 -71 -170t106 -200l285 -248q119 -102 119 -268z" glyph-name="section" horiz-adv-x="1081" unicode="§"/><glyph d="M217 1290h-111v133h111v-133zM578 1290h-113v133h113v-133z" glyph-name="dieresis" horiz-adv-x="686" unicode="¨"/><glyph d="M1180 592q0 8 2 12l10 -12h-12zM854 391q102 0 164 52q61 52 76 149h86q-20 -131 -108 -205t-220 -74q-174 0 -269 113t-96 297t97 300t272 116q127 0 211 -71t104 -194h-84q-31 186 -233 187q-141 0 -208 -91q-66 -91 -66 -244t68 -244t206 -91zM1479 728 q-1 288 -181 478t-453 190t-453 -190t-181 -478q0 -288 180 -478q179 -190 453 -190t454 190t181 478zM1569 728q0 -320 -209 -532t-517 -212t-515 212t-207 531t211 533t518 213q307 0 513 -212q206 -213 206 -533z" glyph-name="copyright" horiz-adv-x="1691" unicode="©"/><glyph d="M494 729v64q-179 -3 -249 -22q-69 -19 -88 -48t-20 -78q0 -129 148 -129q105 0 157 62t52 151zM271 473q-78 0 -133 45q-54 44 -54 112q0 112 89 161q68 34 204 40q45 2 117 3v45q0 155 -157 155t-175 -112q-8 0 -24 2t-23 2q20 152 219 151q211 0 211 -213v-377h-25 l-28 107q-29 -55 -86 -88t-135 -33z" glyph-name="ordfeminine" horiz-adv-x="712" unicode="ª"/><glyph d="M518 557q172 239 291 416l86 -64l-256 -354q244 -344 258 -365l-88 -57zM90 557q172 239 291 416l86 -64l-256 -354q244 -344 258 -365l-88 -57z" glyph-name="guillemotleft" horiz-adv-x="1030" unicode="«"/><glyph d="M1059 291h-82v389h-844v80h926v-469z" glyph-name="logicalnot" horiz-adv-x="1241" unicode="¬"/><glyph d="M569 899h144q61 0 100 37t39 86q0 115 -145 115h-138v-238zM500 602v598h209q111 0 163 -52t52 -130q0 -121 -119 -168l35 -72h-2l88 -176h-82q-37 86 -111 234h-164v-234h-69zM694 367q219 0 364 148q144 149 144 379t-144 381t-364 151t-362 -152q-144 -150 -144 -380 t144 -378t362 -149zM692 299q-246 0 -412 170t-167 426q0 256 169 426q168 170 416 170t414 -169t166 -425t-170 -427t-416 -171z" glyph-name="registered" horiz-adv-x="1392" unicode="®"/><glyph d="M598 1290h-506v82h506v-82z" glyph-name="macron" horiz-adv-x="690" unicode="¯"/><glyph d="M453 866q97 0 165 69t68 166t-68 165t-166 68t-164 -68q-67 -68 -67 -165t67 -166t165 -69zM784 1100q0 -134 -98 -230t-233 -96t-233 95q-97 95 -97 231t97 230q96 95 232 95t234 -95t98 -230z" glyph-name="degree" horiz-adv-x="907" unicode="°"/><glyph d="M969 -12l911 1456h88l-905 -1456h-94zM2607 618h-909v84h909v-84zM1159 616h-465v-507h-82v507h-465v82h465v490h82v-490h465v-82z" glyph-name="plusminus" horiz-adv-x="2662" unicode="±"/><glyph d="M559 684h-481v55q14 12 128 136t134 141q152 135 152 268q0 80 -48 123t-125 43q-164 0 -194 -162h-49q12 92 74 150t166 59q104 0 166 -57t63 -150q0 -150 -168 -305q-2 -2 -119 -123q-88 -98 -125 -129h426v-49z" glyph-name="uni00B2" horiz-adv-x="604" unicode="²"/><glyph d="M539 907q0 -99 -66 -161q-65 -62 -181 -62t-177 62t-66 157h49q14 -174 197 -174q92 0 141 47t49 131q0 172 -186 172h-61v47h61q80 0 125 42t45 118t-48 117t-126 41q-166 0 -191 -154h-49q4 84 70 142t170 57q103 0 165 -54t62 -141q0 -131 -135 -188q152 -52 152 -199 z" glyph-name="uni00B3" horiz-adv-x="604" unicode="³"/><glyph d="M147 1217q76 76 263 245q10 -8 28 -26l29 -29l-291 -219z" glyph-name="acute" horiz-adv-x="636" unicode="´"/><glyph d="M109 188v1080h1079v-1080h-1079zM440 763q0 30 -8 30q-16 -1 -16 -5t5 -4t5 -44t-33 -73q-10 -11 -14 -12q-4 0 -4 13l-4 116q2 2 2 6t-4 5l-17 -11q4 -45 4 -52t-22 -39q-22 -31 -26 -31q-3 0 -3 47t-6 77q-2 10 -16 11q-57 0 -88 -25q-31 -26 -31 -62t33 -36 q16 0 25 10t9 24t-10 13q-10 0 -10 -8l6 -15q1 -18 -21 -18t-22 36t34 54t66 18q10 0 11 -26l6 -119q0 -4 4 -4q25 0 61 76l4 -72q0 -4 11 -4q35 16 52 55t17 69zM471 723h2q18 0 19 -33v-2q0 -45 -25 -45q-18 0 -18 25v4q-1 51 22 51zM481 731q-21 0 -35 -18 q-14 -19 -14 -35t1 -22t9 -12q8 -7 21 -7q45 0 45 59q0 35 -27 35zM522 709q0 8 10 8t11 -25l-8 -51l4 -4q14 0 14 8v2q0 66 16 66h2l9 -4l8 8q0 14 -15 14l-10 -10q0 -1 -8 -21q-7 31 -14 31t-17 -8t-10 -16l4 -9l4 4v7zM641 700v-12q0 -8 -7 -24t-22 -17q-14 0 -14 24 t8 31q9 21 22 21t13 -23zM641 659v-8q0 -16 10 -16q11 0 19 8t10 16l-4 5q-4 -1 -4 -9t-8 -8q-8 -1 -8 7t6 71v6q10 50 10 57t-20 7q-20 -1 -19 -7q0 -6 4 -5t10 1t6 -6q0 -59 -8 -59l-2 2q-1 8 -19 8q-18 1 -30 -23t-12 -46t22 -23q16 0 26 11t11 11zM716 721l21 -8 q6 0 6 8t-14 8h-2q-33 0 -33 -24q0 -14 18 -26q18 -11 19 -14q2 -3 2 -13t-16 -9q-16 0 -17 8v2q0 8 -8 9q-6 0 -6 -7q0 -18 30 -18t29 27q0 12 -15 23t-19 15t-4 12t9 7zM822 631q16 0 22 18l2 4q0 4 -4 4q-4 -2 -4 -6q-4 -10 -10 -10t-7 4q0 4 5 21t5 41q0 25 -24 24 q-12 0 -19 -9q-6 -9 -6 -11l-4 -4h-2l12 84q0 4 -20 4t-18 -9q0 -2 6 -2h8q6 0 6 -8l-6 -53v-2q-4 -41 -8 -59l-4 -21q0 -2 9 -2t9 4v16q13 60 33 60q14 0 14 -10v-4l-12 -64q1 -10 17 -10zM881 647q-13 0 -13 30t27 46q14 0 14 -38t-28 -38zM925 645q-5 1 -5 19t6 36t6 21 l2 2v2q0 2 -6 2h-2q-8 0 -10 -5t-3 -5q-8 12 -20 12t-35 -33q-6 -18 -6 -32q0 -27 22 -27q11 0 31 20q2 0 2 -4v-8q-1 -8 9 -8t19 6t9 12t-4 7q-10 -17 -15 -17zM977 717q0 4 10 4q25 0 25 -39t-25 -39q-16 0 -16 14v5l6 47v8zM973 764v-2q-6 0 -6 -6l-2 -19v-6 q0 -8 -15 -15q-14 -6 -14 -14t4 -8l16 15q0 4 5 4l2 -2l-11 -76q0 -23 -8 -23h-8q-2 0 -2 -2q0 -10 24 -10t22 4q-1 4 -3 4h-6q-6 0 -6 16t4 17q12 -4 23 -4q12 0 24 14t12 39q0 39 -33 39q-8 -2 -14 -2l-2 2l4 31l-4 4h-6zM1065 719h2q12 -1 12 -21t-18 -20q-10 0 -10 10 t5 21q5 10 9 10zM1055 672h2q17 0 27 15t10 24q0 18 -18 18t-29 -20q-13 -20 -13 -44t15 -24q8 -4 18 -4t22 6t13 14q0 4 -4 5q-4 0 -4 -5q-8 -14 -23 -14q-20 0 -20 25q0 4 4 4z" glyph-name="uni00B5" horiz-adv-x="1261" unicode="µ"/><glyph d="M522 102v590q-200 0 -308 109t-108 255t79 244t208 127h625v-1325h-94v1272h-310v-1272h-92z" glyph-name="paragraph" horiz-adv-x="1288" unicode="¶"/><glyph d="M315 604h-151v168h151v-168z" glyph-name="periodcentered" horiz-adv-x="495" unicode="·"/><glyph d="M231 -449l-90 43q49 88 140 265h77z" glyph-name="cedilla" horiz-adv-x="565" unicode="¸"/><glyph d="M459 1524v-766h-51v712q-178 -117 -207 -135v49q69 50 207 140h51z" glyph-name="uni00B9" horiz-adv-x="604" unicode="¹"/><glyph d="M387 463q117 0 171 82q54 83 54 201t-54 198t-171 80t-171 -81t-54 -199t54 -200t171 -81zM385 416q-135 0 -208 91t-73 235t76 238t208 93q132 0 206 -91q74 -90 74 -236t-74 -238t-209 -92z" glyph-name="ordmasculine" horiz-adv-x="835" unicode="º"/><glyph d="M473 557l-291 -424l-48 32q-30 19 -40 25l258 365q-227 317 -256 354l86 64q119 -177 291 -416zM610 133l-88 57l258 365q-227 317 -256 354l86 64q119 -177 291 -416z" glyph-name="guillemotright" horiz-adv-x="1030" unicode="»"/><glyph d="M1477 225v432l-312 -432h312zM1122 190v39l351 492h55v-496h94v-35h-94v-200h-51v200h-355zM676 874h-49v672q-164 -109 -195 -129v47q86 57 195 131h49v-721zM1378 1479l-899 -1518h-49l899 1518h49z" glyph-name="onequarter" horiz-adv-x="1884" unicode="¼"/><glyph d="M1708 -12h-473v53q23 18 125 132t133 142q147 131 147 263q0 78 -45 120t-122 41q-164 0 -191 -159h-49q11 92 71 149t164 57t165 -56q60 -56 61 -148q0 -150 -164 -297q-12 -11 -112 -119t-130 -129h420v-49zM731 758h-55v778q-37 -23 -114 -74t-113 -73v53 q111 75 225 151h57v-835zM1378 1479l-899 -1518h-49l899 1518h49z" glyph-name="onehalf" horiz-adv-x="2123" unicode="½"/><glyph d="M733 987q1 -106 -69 -172q-70 -65 -192 -65t-186 66t-69 167h51q16 -186 209 -186q96 0 149 50q52 50 52 140t-52 136t-145 46h-65v48h65q84 0 131 45t47 125q0 79 -50 123t-132 44q-174 0 -203 -163h-51q4 90 73 150q70 61 180 61t174 -58t65 -149q0 -141 -142 -197 q160 -57 160 -211zM1436 252v489l-355 -489h355zM1034 211v43q131 186 398 559h63v-561h107v-41h-107v-227h-59v227h-402zM1380 1479l-899 -1518h-49l899 1518h49z" glyph-name="threequarters" horiz-adv-x="1884" unicode="¾"/><glyph d="M457 881v155h139v-155h-139zM94 -74q0 205 189 355q61 51 85 75q83 81 97 140t14 125h92q-2 -141 -55 -223t-176 -179q-145 -117 -145 -268t78 -230q79 -78 227 -77q307 0 348 301h94q-20 -168 -134 -279q-114 -110 -301 -110t-300 104t-113 266z" glyph-name="questiondown" horiz-adv-x="1003" unicode="¿"/><glyph d="M594 1522l-270 247h196q37 -48 197 -247h-123zM973 510l-328 844l-323 -844h651zM29 0l565 1456h108q191 -485 568 -1456h-96l-164 420h-725q-80 -213 -160 -420h-96z" glyph-name="Agrave" horiz-adv-x="1298" unicode="À"/><glyph d="M582 1556q96 96 262 246q10 -8 28 -26l29 -29l-291 -219zM973 510l-328 844l-323 -844h651zM29 0l565 1456h108q191 -485 568 -1456h-96l-164 420h-725q-80 -213 -160 -420h-96z" glyph-name="Aacute" horiz-adv-x="1298" unicode="Á"/><glyph d="M358 1528l252 295h84q78 -90 252 -295h-88l-207 237l-202 -237h-91zM973 510l-328 844l-323 -844h651zM29 0l565 1456h108q191 -485 568 -1456h-96l-164 420h-725q-80 -213 -160 -420h-96z" glyph-name="Acircumflex" horiz-adv-x="1298" unicode="Â"/><glyph d="M766 1628q78 0 113 80l51 -20q-41 -131 -166 -132q-60 0 -152 52t-133 51q-78 0 -110 -78q-12 4 -54 16q39 133 170 134q59 0 154 -54q76 -49 127 -49zM973 510l-328 844l-323 -844h651zM29 0l565 1456h108q191 -485 568 -1456h-96l-164 420h-725q-80 -213 -160 -420h-96 z" glyph-name="Atilde" horiz-adv-x="1298" unicode="Ã"/><glyph d="M516 1585h-110v133h110v-133zM877 1585h-113v133h113v-133zM973 510l-328 844l-323 -844h651zM29 0l565 1456h108q191 -485 568 -1456h-96l-164 420h-725q-80 -213 -160 -420h-96z" glyph-name="Adieresis" horiz-adv-x="1439" unicode="Ä"/><glyph d="M778 1700q0 63 -36 102t-97 39t-97 -39t-36 -102q0 -64 36 -102t97 -38t97 39q36 38 36 101zM844 1700q0 -90 -58 -144t-141 -53q-84 0 -140 53q-56 54 -56 144t54 143t142 53q87 0 143 -53t56 -143zM973 510l-328 844l-323 -844h651zM29 0l565 1456h108 q191 -485 568 -1456h-96l-164 420h-725q-80 -213 -160 -420h-96z" glyph-name="Aring" horiz-adv-x="1439" unicode="Å"/><glyph d="M1004 551v821h-183l-418 -821h601zM1835 0h-831v463h-646q-8 -16 -243 -463h-107q219 422 760 1456h1065v-84h-739v-561h667v-90h-667v-633h741v-88z" glyph-name="AE" horiz-adv-x="1943" unicode="Æ"/><glyph d="M119 726q0 333 153 548q154 215 441 215q225 0 364 -130t174 -337l-98 -2q-33 178 -143 280q-111 102 -297 103q-133 0 -233 -57q-100 -56 -154 -156q-107 -194 -107 -464t107 -460q55 -98 154 -154t235 -57q201 1 311 105t137 282h97q-29 -211 -162 -332t-316 -138 l-127 -306l-90 43q49 87 137 260q-290 4 -436 214t-147 543z" glyph-name="Ccedilla" horiz-adv-x="1349" unicode="Ç"/><glyph d="M637 1524l-270 248h196l99 -123q66 -82 98 -125h-123zM1133 0h-934v1456h917v-86h-821v-563h752v-90h-752v-627h838v-90z" glyph-name="Egrave" horiz-adv-x="1232" unicode="È"/><glyph d="M584 1548q96 96 262 246l28 -28q18 -18 29 -27l-291 -219zM1133 0h-934v1456h917v-86h-821v-563h752v-90h-752v-627h838v-90z" glyph-name="Eacute" horiz-adv-x="1259" unicode="É"/><glyph d="M393 1561l252 294h84q172 -200 252 -294h-88l-207 237q-107 -126 -203 -237h-90zM1133 0h-934v1456h917v-86h-821v-563h752v-90h-752v-627h838v-90z" glyph-name="Ecircumflex" horiz-adv-x="1269" unicode="Ê"/><glyph d="M549 1550h-111v133h111v-133zM909 1550h-112v133h112v-133zM1133 0h-934v1456h917v-86h-821v-563h752v-90h-752v-627h838v-90z" glyph-name="Edieresis" horiz-adv-x="1232" unicode="Ë"/><glyph d="M184 1544l-270 248h197q152 -189 196 -248h-123zM301 0h-96v1456h96v-1456z" glyph-name="Igrave" horiz-adv-x="505" unicode="Ì"/><glyph d="M219 1548q58 58 262 246l29 -29q19 -18 29 -26l-291 -219zM301 0h-96v1456h96v-1456z" glyph-name="Iacute" horiz-adv-x="505" unicode="Í"/><glyph d="M-45 1538l252 295h84q78 -90 252 -295h-88l-207 238l-203 -238h-90zM301 0h-96v1456h96v-1456z" glyph-name="Icircumflex" horiz-adv-x="505" unicode="Î"/><glyph d="M131 1550h-111v133h111v-133zM492 1550h-113v133h113v-133zM301 0h-96v1456h96v-1456z" glyph-name="Idieresis" horiz-adv-x="505" unicode="Ï"/><glyph d="M319 88h308q78 0 155 10q426 49 426 633q0 391 -196 545q-129 94 -305 94h-388v-575h383v-80h-383v-627zM223 0v715h-164v80h164v661h484q270 0 423 -158q176 -174 176 -576t-208 -583q-162 -139 -414 -139h-461z" glyph-name="Eth" horiz-adv-x="1425" unicode="Ð"/><glyph d="M598 1704q61 0 154 -53q76 -49 127 -49q78 0 112 79l51 -20q-41 -131 -165 -131q-61 0 -153 51t-132 51q-78 0 -111 -78q-39 13 -53 17q39 133 170 133zM1266 0h-113l-860 1321v-1321h-96v1456h114l860 -1317v1317h95v-1456z" glyph-name="Ntilde" horiz-adv-x="1462" unicode="Ñ"/><glyph d="M657 1563l-270 247h197q162 -201 196 -247h-123zM1229 729q0 345 -160 531q-55 63 -144 102t-202 39t-202 -39q-302 -132 -302 -633q0 -222 65 -378q120 -296 453 -296q127 -1 229 57t158 157q105 189 105 460zM119 727q0 314 142 531q71 108 190 169t299 61t320 -106 q259 -197 259 -651q0 -401 -202 -609q-149 -153 -401 -153q-254 0 -404 150q-203 203 -203 608z" glyph-name="Ograve" horiz-adv-x="1447" unicode="Ò"/><glyph d="M653 1599q58 58 262 246q43 -43 58 -55l-291 -219zM1229 729q0 345 -160 531q-55 63 -144 102t-202 39t-202 -39q-302 -132 -302 -633q0 -222 65 -378q120 -296 453 -296q127 -1 229 57t158 157q105 189 105 460zM119 727q0 314 142 531q71 108 190 169t299 61t320 -106 q259 -197 259 -651q0 -401 -202 -609q-149 -153 -401 -153q-254 0 -404 150q-203 203 -203 608z" glyph-name="Oacute" horiz-adv-x="1447" unicode="Ó"/><glyph d="M434 1544l252 295h84q78 -90 252 -295h-88l-207 238l-203 -238h-90zM1229 729q0 345 -160 531q-55 63 -144 102t-202 39t-202 -39q-302 -132 -302 -633q0 -222 65 -378q120 -296 453 -296q127 -1 229 57t158 157q105 189 105 460zM119 727q0 314 142 531q71 108 190 169 t299 61t320 -106q259 -197 259 -651q0 -401 -202 -609q-149 -153 -401 -153q-254 0 -404 150q-203 203 -203 608z" glyph-name="Ocircumflex" horiz-adv-x="1447" unicode="Ô"/><glyph d="M582 1767q61 0 153 -53q76 -49 127 -49q78 0 113 80l51 -21q-41 -131 -166 -131q-61 -1 -152 51t-133 52q-78 0 -110 -78l-53 16q39 133 170 133zM1229 729q0 345 -160 531q-55 63 -144 102t-202 39t-202 -39q-302 -132 -302 -633q0 -222 65 -378q120 -296 453 -296 q127 -1 229 57t158 157q105 189 105 460zM119 727q0 314 142 531q71 108 190 169t299 61t320 -106q259 -197 259 -651q0 -401 -202 -609q-149 -153 -401 -153q-254 0 -404 150q-203 203 -203 608z" glyph-name="Otilde" horiz-adv-x="1447" unicode="Õ"/><glyph d="M612 1585h-110v133h110v-133zM973 1585h-113v133h113v-133zM1229 729q0 345 -160 531q-55 63 -144 102t-202 39t-202 -39q-302 -132 -302 -633q0 -222 65 -378q120 -296 453 -296q127 -1 229 57t158 157q105 189 105 460zM119 727q0 314 142 531q71 108 190 169t299 61 t320 -106q259 -197 259 -651q0 -401 -202 -609q-149 -153 -401 -153q-254 0 -404 150q-203 203 -203 608z" glyph-name="Odieresis" horiz-adv-x="1546" unicode="Ö"/><glyph d="M700 647l414 -411l-51 -58l-414 414l-413 -414l-52 58l414 411q-274 270 -426 422l53 55l424 -422l424 422q10 -10 51 -55z" glyph-name="multiply" horiz-adv-x="1298" unicode="×"/><glyph d="M718 55q146 -1 248 57t158 157q105 189 105 460q0 355 -164 535q-72 -135 -621 -1127q128 -82 274 -82zM745 1401q-135 0 -224 -39q-302 -132 -302 -633q0 -358 166 -541q43 80 616 1129q-121 84 -256 84zM1114 1346q215 -215 215 -576q0 -162 -20 -272 q-43 -233 -187 -381t-397 -148q-178 0 -324 88q-79 -141 -96 -174q-5 3 -17 9t-18 10l-34 20q12 23 100 184q-217 197 -217 621q0 314 142 531q151 230 475 230q166 0 311 -91q84 154 94 168l71 -39z" glyph-name="Oslash" horiz-adv-x="1447" unicode="Ø"/><glyph d="M674 1538l-271 248h197q144 -178 197 -248h-123zM1223 551q0 -283 -133 -433q-134 -150 -390 -149q-256 0 -389 151t-133 435v901h98v-907q0 -494 425 -494t425 494v907h97v-905z" glyph-name="Ugrave" horiz-adv-x="1402" unicode="Ù"/><glyph d="M602 1573q58 58 262 246q10 -8 29 -27l29 -29l-291 -219zM1223 551q0 -283 -133 -433q-134 -150 -390 -149q-256 0 -389 151t-133 435v901h98v-907q0 -494 425 -494t425 494v907h97v-905z" glyph-name="Uacute" horiz-adv-x="1402" unicode="Ú"/><glyph d="M393 1552l252 295h84q78 -90 252 -295h-88l-207 238l-203 -238h-90zM1223 551q0 -283 -133 -433q-134 -150 -390 -149q-256 0 -389 151t-133 435v901h98v-907q0 -494 425 -494t425 494v907h97v-905z" glyph-name="Ucircumflex" horiz-adv-x="1402" unicode="Û"/><glyph d="M586 1581h-111v133h111v-133zM946 1581h-112v133h112v-133zM1223 551q0 -283 -133 -433q-134 -150 -390 -149q-256 0 -389 151t-133 435v901h98v-907q0 -494 425 -494t425 494v907h97v-905z" glyph-name="Udieresis" horiz-adv-x="1464" unicode="Ü"/><glyph d="M537 1546q96 96 262 246q11 -8 29 -26l28 -29l-291 -219zM629 0h-94v604q-282 478 -508 852h108l449 -768q110 186 450 768h99l-504 -852v-604z" glyph-name="Yacute" horiz-adv-x="1159" unicode="Ý"/><glyph d="M1065 744q0 173 -98 255t-305 82h-369v-682h371q207 0 304 86t97 259zM1163 748q0 -207 -124 -321t-377 -114h-369v-313h-94v1456h94v-289h371q499 1 499 -419z" glyph-name="Thorn" horiz-adv-x="1245" unicode="Þ"/><glyph d="M197 1063q0 180 104 299q103 119 285 119q182 -1 285 -97t104 -251q0 -111 -56 -198t-169 -126q147 -33 244 -141t98 -258q0 -190 -118 -310t-329 -118q-92 0 -178 22q4 23 8 80q98 -23 166 -23q174 -1 263 91t89 258t-105 254t-282 88h-94v84h80q41 0 65 8 q111 14 168 90t57 196t-78 197q-80 76 -220 76t-218 -87t-77 -239v-1077h-92v1063z" glyph-name="germandbls" horiz-adv-x="1181" unicode="ß"/><glyph d="M530 1184l-270 248h197q33 -43 99 -125t97 -123h-123zM840 434v117q-392 -12 -497 -53q-106 -41 -131 -112q-15 -42 -15 -101q-1 -111 67 -171t197 -61q187 1 283 111t96 270zM553 1063q381 0 381 -383v-680h-47l-51 190q-54 -98 -156 -156t-244 -58t-238 80 q-98 81 -98 218t86 223q117 114 505 127q58 1 149 1v80q0 281 -282 281t-316 -204l-88 9q20 135 124 203t275 69z" glyph-name="agrave" horiz-adv-x="1177" unicode="à"/><glyph d="M463 1190q58 58 262 246l29 -29q18 -19 28 -27l-290 -219zM840 434v117q-392 -12 -497 -53q-106 -41 -131 -112q-15 -42 -15 -101q-1 -111 67 -171t197 -61q187 1 283 111t96 270zM553 1063q381 0 381 -383v-680h-47l-51 190q-54 -98 -156 -156t-244 -58t-238 80 q-98 81 -98 218t86 223q117 114 505 127q58 1 149 1v80q0 281 -282 281t-316 -204l-88 9q20 135 124 203t275 69z" glyph-name="aacute" horiz-adv-x="1177" unicode="á"/><glyph d="M274 1139l252 295h84q78 -90 252 -295h-88l-207 237l-202 -237h-91zM840 434v117q-392 -12 -497 -53q-106 -41 -131 -112q-15 -42 -15 -101q-1 -111 67 -171t197 -61q187 1 283 111t96 270zM553 1063q381 0 381 -383v-680h-47l-51 190q-54 -98 -156 -156t-244 -58 t-238 80q-98 81 -98 218t86 223q117 114 505 127q58 1 149 1v80q0 281 -282 281t-316 -204l-88 9q20 135 124 203t275 69z" glyph-name="acircumflex" horiz-adv-x="1177" unicode="â"/><glyph d="M422 1378q61 0 153 -53q76 -49 127 -49q78 0 113 80l51 -21q-41 -131 -166 -131q-61 0 -152 51t-132 52q-78 0 -111 -78l-53 16q39 133 170 133zM840 434v117q-392 -12 -497 -53q-106 -41 -131 -112q-15 -42 -15 -101q-1 -111 67 -171t197 -61q187 1 283 111t96 270z M553 1063q381 0 381 -383v-680h-47l-51 190q-54 -98 -156 -156t-244 -58t-238 80q-98 81 -98 218t86 223q117 114 505 127q58 1 149 1v80q0 281 -282 281t-316 -204l-88 9q20 135 124 203t275 69z" glyph-name="atilde" horiz-adv-x="1177" unicode="ã"/><glyph d="M436 1227h-110v133h110v-133zM797 1227h-113v133h113v-133zM840 434v117q-392 -12 -497 -53q-106 -41 -131 -112q-15 -42 -15 -101q-1 -111 67 -171t197 -61q187 1 283 111t96 270zM553 1063q381 0 381 -383v-680h-47l-51 190q-54 -98 -156 -156t-244 -58t-238 80 q-98 81 -98 218t86 223q117 114 505 127q58 1 149 1v80q0 281 -282 281t-316 -204l-88 9q20 135 124 203t275 69z" glyph-name="adieresis" horiz-adv-x="1177" unicode="ä"/><glyph d="M698 1362q0 63 -35 102t-97 39t-98 -39t-36 -102t36 -101t97 -38t98 38q35 38 35 101zM764 1362q0 -90 -57 -143t-141 -53t-141 52q-56 54 -56 144t54 143t142 53q87 0 143 -52q56 -54 56 -144zM840 434v117q-392 -12 -497 -53q-106 -41 -131 -112q-15 -42 -15 -101 q-1 -111 67 -171t197 -61q187 1 283 111t96 270zM553 1063q381 0 381 -383v-680h-47l-51 190q-54 -98 -156 -156t-244 -58t-238 80q-98 81 -98 218t86 223q117 114 505 127q58 1 149 1v80q0 281 -282 281t-316 -204l-88 9q20 135 124 203t275 69z" glyph-name="aring" horiz-adv-x="1177" unicode="å"/><glyph d="M1259 987q-162 0 -251 -106t-99 -299h678q-2 178 -84 292t-244 113zM813 418v117h-90q-257 0 -386 -42q-149 -50 -149 -208q0 -109 69 -168t194 -60q174 -1 268 101t94 260zM535 1063q272 0 352 -209q129 209 356 209t333 -144t105 -370v-45h-776q0 -197 89 -328 t266 -131q256 0 309 229h90q-27 -141 -130 -222t-269 -81q-281 0 -398 273q-54 -117 -160 -192t-259 -75t-251 81t-98 231t101 219q51 34 103 56q105 44 437 44h76v64q0 162 -60 238t-219 75q-266 0 -301 -199h-86q23 135 122 206t268 71z" glyph-name="ae" horiz-adv-x="1783" unicode="æ"/><glyph d="M582 1063q162 0 270 -94t127 -248h-92q-23 119 -101 189t-192 71q-215 0 -298 -140t-83 -332t86 -325t279 -133q134 -1 212 71t105 195h96q-29 -160 -129 -246t-238 -98l-120 -290q-36 16 -90 43q47 84 130 246q-200 10 -314 154t-114 388q0 242 122 396q121 154 344 153 z" glyph-name="ccedilla" horiz-adv-x="1079" unicode="ç"/><glyph d="M532 1186l-270 248h197q80 -100 196 -248h-123zM579 987q-164 -1 -261 -111t-107 -298h711q-2 182 -90 296t-253 113zM580 47q268 0 323 227h92q-29 -139 -139 -221t-276 -82q-215 1 -339 149t-124 392t126 398q127 154 337 153q210 0 324 -142t114 -360l-2 -63h-809 q4 -193 101 -322t272 -129z" glyph-name="egrave" horiz-adv-x="1146" unicode="è"/><glyph d="M475 1184l262 246q10 -8 29 -27l29 -29l-291 -219zM579 987q-164 -1 -261 -111t-107 -298h711q-2 182 -90 296t-253 113zM580 47q268 0 323 227h92q-29 -139 -139 -221t-276 -82q-215 1 -339 149t-124 392t126 398q127 154 337 153q210 0 324 -142t114 -360l-2 -63h-809 q4 -193 101 -322t272 -129z" glyph-name="eacute" horiz-adv-x="1146" unicode="é"/><glyph d="M264 1141l252 295h84q78 -90 252 -295h-88l-207 237l-203 -237h-90zM579 987q-164 -1 -261 -111t-107 -298h711q-2 182 -90 296t-253 113zM580 47q268 0 323 227h92q-29 -139 -139 -221t-276 -82q-215 1 -339 149t-124 392t126 398q127 154 337 153q210 0 324 -142 t114 -360l-2 -63h-809q4 -193 101 -322t272 -129z" glyph-name="ecircumflex" horiz-adv-x="1146" unicode="ê"/><glyph d="M473 1290h-111v133h111v-133zM834 1290h-113v133h113v-133zM579 987q-164 -1 -261 -111t-107 -298h711q-2 182 -90 296t-253 113zM580 47q268 0 323 227h92q-29 -139 -139 -221t-276 -82q-215 1 -339 149t-124 392t126 398q127 154 337 153q210 0 324 -142t114 -360 l-2 -63h-809q4 -193 101 -322t272 -129z" glyph-name="edieresis" horiz-adv-x="1146" unicode="ë"/><glyph d="M180 1169l-270 248h196l99 -123q66 -82 98 -125h-123zM285 0h-92v1032h92v-1032z" glyph-name="igrave" horiz-adv-x="475" unicode="ì"/><glyph d="M203 1217q45 45 262 245q11 -8 29 -26l28 -29l-291 -219zM285 0h-92v1032h92v-1032z" glyph-name="iacute" horiz-adv-x="475" unicode="í"/><glyph d="M-49 1139l252 295h84q78 -90 252 -295h-88l-207 237l-203 -237h-90zM285 0h-92v1032h92v-1032z" glyph-name="icircumflex" horiz-adv-x="475" unicode="î"/><glyph d="M109 1290h-111v133h111v-133zM469 1290h-113v133h113v-133zM285 0h-92v1032h92v-1032z" glyph-name="idieresis" horiz-adv-x="475" unicode="ï"/><glyph d="M580 51q194 -1 282 129t88 320t-92 316q-92 124 -283 124q-98 0 -172 -40q-129 -70 -174 -248q-18 -74 -18 -156q0 -174 77 -298q40 -67 116 -107t176 -40zM1044 532q0 -250 -120 -406t-343 -155q-224 -1 -344 145t-120 374t123 380t338 152q139 0 268 -98 q-62 221 -228 354l-208 -82l-12 30q-7 19 -11 29q31 12 92 36t84 32q-94 72 -186 119l51 37q119 -51 211 -125q23 10 170 67l27 -57l-142 -57q197 -184 299 -449q51 -133 51 -326z" glyph-name="eth" horiz-adv-x="1161" unicode="ð"/><glyph d="M432 1368q59 0 154 -53q76 -49 127 -49q78 0 112 80l52 -21q-41 -131 -166 -131q-59 0 -151 51t-134 51q-78 0 -111 -77q-18 6 -53 16q39 133 170 133zM176 0v1032h41l57 -194q139 225 377 225q174 0 263 -98t90 -277v-688h-93v670q-1 158 -65 234t-205 75 q-195 0 -284 -129t-89 -350v-500h-92z" glyph-name="ntilde" horiz-adv-x="1212" unicode="ñ"/><glyph d="M524 1186l-270 248h197q80 -100 196 -248h-123zM583 51q132 0 219 71t120 171t32 225q0 197 -89 330t-283 133q-100 0 -174 -40q-197 -107 -197 -441q0 -254 153 -378q87 -71 219 -71zM1049 520q0 -242 -122 -396t-346 -153q-224 0 -344 152q-120 153 -120 393t124 394 t344 153q220 0 342 -151q122 -150 122 -392z" glyph-name="ograve" horiz-adv-x="1236" unicode="ò"/><glyph d="M451 1186q54 54 262 246q11 -8 29 -27t28 -29l-291 -219zM583 51q132 0 219 71t120 171t32 225q0 197 -89 330t-283 133q-100 0 -174 -40q-197 -107 -197 -441q0 -254 153 -378q87 -71 219 -71zM1049 520q0 -242 -122 -396t-346 -153q-224 0 -344 152q-120 153 -120 393 t124 394t344 153q220 0 342 -151q122 -150 122 -392z" glyph-name="oacute" horiz-adv-x="1236" unicode="ó"/><glyph d="M315 1163l252 295h84q78 -90 252 -295h-88l-207 238l-202 -238h-91zM583 51q132 0 219 71t120 171t32 225q0 197 -89 330t-283 133q-100 0 -174 -40q-197 -107 -197 -441q0 -254 153 -378q87 -71 219 -71zM1049 520q0 -242 -122 -396t-346 -153q-224 0 -344 152 q-120 153 -120 393t124 394t344 153q220 0 342 -151q122 -150 122 -392z" glyph-name="ocircumflex" horiz-adv-x="1236" unicode="ô"/><glyph d="M735 1288q78 0 113 80l51 -20q-41 -131 -166 -131q-61 0 -152 51t-132 51q-78 0 -111 -78l-53 16q39 133 170 134q61 0 153 -54q76 -49 127 -49zM583 51q132 0 219 71t120 171t32 225q0 197 -89 330t-283 133q-100 0 -174 -40q-197 -107 -197 -441q0 -254 153 -378 q87 -71 219 -71zM1049 520q0 -242 -122 -396t-346 -153q-224 0 -344 152q-120 153 -120 393t124 394t344 153q220 0 342 -151q122 -150 122 -392z" glyph-name="otilde" horiz-adv-x="1257" unicode="õ"/><glyph d="M455 1290h-111v133h111v-133zM815 1290h-113v133h113v-133zM583 51q132 0 219 71t120 171t32 225q0 197 -89 330t-283 133q-100 0 -174 -40q-197 -107 -197 -441q0 -254 153 -378q87 -71 219 -71zM1049 520q0 -242 -122 -396t-346 -153q-224 0 -344 152 q-120 153 -120 393t124 394t344 153q220 0 342 -151q122 -150 122 -392z" glyph-name="odieresis" horiz-adv-x="1236" unicode="ö"/><glyph d="M700 170h-133v154h133v-154zM700 987h-133v156h133v-156zM1104 612h-932v84h932v-84z" glyph-name="divide" horiz-adv-x="1275" unicode="÷"/><glyph d="M582 51q190 0 281 134t91 333q0 90 -32 190t-84 173l-437 -783q76 -47 181 -47zM589 981q-285 0 -359 -294q-19 -79 -19 -170t35 -200t96 -176q328 594 436 785q-82 55 -189 55zM1049 533q0 -255 -122 -409t-347 -153q-127 0 -224 52q-29 -60 -80 -148l-65 31 q31 55 88 157q-182 154 -182 451q0 242 124 396t343 153q125 0 235 -64q49 99 86 156l70 -31q-9 -18 -27 -48t-26 -44l-41 -76q168 -168 168 -423z" glyph-name="oslash" horiz-adv-x="1165" unicode="ø"/><glyph d="M557 1184l-270 248h196q33 -43 99 -125t98 -123h-123zM164 344v690h92v-667q0 -162 61 -238t203 -76t246 99q72 68 96 150t25 233v499h92v-1034h-51l-47 199q-68 -109 -166 -168t-207 -60q-344 0 -344 373z" glyph-name="ugrave" horiz-adv-x="1157" unicode="ù"/><glyph d="M449 1188q54 54 262 246q11 -8 29 -27t28 -29l-291 -219zM164 344v690h92v-667q0 -162 61 -238t203 -76t246 99q72 68 96 150t25 233v499h92v-1034h-51l-47 199q-68 -109 -166 -168t-207 -60q-344 0 -344 373z" glyph-name="uacute" horiz-adv-x="1224" unicode="ú"/><glyph d="M254 1163l252 295h84q78 -90 252 -295h-88l-207 238l-203 -238h-90zM164 344v690h92v-667q0 -162 61 -238t203 -76t246 99q72 68 96 150t25 233v499h92v-1034h-51l-47 199q-68 -109 -166 -168t-207 -60q-344 0 -344 373z" glyph-name="ucircumflex" horiz-adv-x="1157" unicode="û"/><glyph d="M432 1233h-110v133h110v-133zM793 1233h-113v133h113v-133zM164 344v690h92v-667q0 -162 61 -238t203 -76t246 99q72 68 96 150t25 233v499h92v-1034h-51l-47 199q-68 -109 -166 -168t-207 -60q-344 0 -344 373z" glyph-name="udieresis" horiz-adv-x="1157" unicode="ü"/><glyph d="M436 1165q58 58 262 246q15 -12 58 -55l-291 -219zM100 -322q49 -16 107 -16t82 14q25 14 37 22t26 31t24 35t23 46q14 34 22 50q7 17 23 62t27 68q-35 84 -230 551q-196 467 -206 491h96q164 -385 385 -938q23 57 178 465q156 408 180 473h97q-31 -84 -243 -622 t-234 -596q-87 -232 -259 -232q-88 0 -147 19z" glyph-name="yacute" horiz-adv-x="999" unicode="ý"/><glyph d="M266 543q0 -492 359 -492q170 0 263 128t93 340t-93 337t-263 125q-171 1 -265 -119t-94 -319zM176 -410v1878h94v-626q134 221 358 221t337 -154q113 -153 113 -391t-120 -392t-340 -155q-220 0 -348 215v-596h-94z" glyph-name="thorn" horiz-adv-x="1191" unicode="þ"/><glyph d="M381 1219h-111v133h111v-133zM741 1219h-112v133h112v-133zM100 -322q49 -16 107 -16t82 14q25 14 37 22t26 31t24 35t23 46q14 34 22 50q7 17 23 62t27 68q-35 84 -230 551q-196 467 -206 491h96q164 -385 385 -938q23 57 178 465q156 408 180 473h97q-31 -84 -243 -622 t-234 -596q-87 -232 -259 -232q-88 0 -147 19z" glyph-name="ydieresis" horiz-adv-x="999" unicode="ÿ"/><glyph d="M901 1526h-506v82h506v-82zM973 510l-328 844l-323 -844h651zM29 0l565 1456h108q191 -485 568 -1456h-96l-164 420h-725q-80 -213 -160 -420h-96z" glyph-name="Amacron" horiz-adv-x="1466" unicode="Ā"/><glyph d="M819 1184h-506v82h506v-82zM840 434v117q-392 -12 -497 -53q-106 -41 -131 -112q-15 -42 -15 -101q-1 -111 67 -171t197 -61q187 1 283 111t96 270zM553 1063q381 0 381 -383v-680h-47l-51 190q-54 -98 -156 -156t-244 -58t-238 80q-98 81 -98 218t86 223 q117 114 505 127q58 1 149 1v80q0 281 -282 281t-316 -204l-88 9q20 135 124 203t275 69z" glyph-name="amacron" horiz-adv-x="1198" unicode="ā"/><glyph d="M1243 -104q0 -121 109 -158q-14 -20 -43 -57q-158 45 -158 198q0 55 33 121h-10l-164 420h-725q-80 -213 -160 -420h-96l565 1456h108q190 -485 568 -1456q-27 -57 -27 -104zM973 510l-328 844l-323 -844h651z" glyph-name="Aogonek" horiz-adv-x="1470" unicode="Ą"/><glyph d="M553 1063q381 0 381 -383v-680q-27 -57 -27 -104q0 -121 109 -158q-14 -20 -43 -57q-158 45 -158 198q0 55 33 121h39l-51 190q-54 -98 -156 -156t-244 -58t-238 80q-98 81 -98 218t86 223q117 114 505 127q58 1 149 1v80q0 281 -282 281t-316 -204l-88 9q20 135 124 203 t275 69zM840 434v117q-392 -12 -497 -53q-106 -41 -131 -112q-15 -42 -15 -101q-1 -111 67 -171t197 -61q187 1 283 111t96 270z" glyph-name="aogonek" horiz-adv-x="1105" unicode="ą"/><glyph d="M670 1626q96 96 262 246q10 -8 28 -26l29 -29l-291 -220zM326 1190q-107 -194 -107 -464t107 -460q55 -98 154 -154t235 -57q201 1 311 105t137 282h97q-28 -211 -172 -342t-373 -131q-299 0 -448 212q-148 212 -148 545t153 548q154 215 441 215q225 0 364 -130 t174 -337l-98 -2q-33 178 -143 280q-111 102 -297 103q-133 0 -233 -57q-100 -56 -154 -156z" glyph-name="Cacute" horiz-adv-x="1523" unicode="Ć"/><glyph d="M545 1204q58 58 262 246q11 -8 29 -26l28 -29l-291 -219zM582 1063q162 0 270 -94t127 -248h-92q-23 119 -101 189t-192 71q-215 0 -298 -140t-83 -332t86 -325t279 -133q134 -1 212 71t105 195h96q-29 -161 -137 -253t-279 -93q-223 0 -341 150q-118 151 -118 393 t122 396q121 154 344 153z" glyph-name="cacute" horiz-adv-x="1081" unicode="ć"/><glyph d="M690 1645l203 249h94l-256 -295h-82l-258 295h92zM326 1190q-107 -194 -107 -464t107 -460q55 -98 154 -154t235 -57q201 1 311 105t137 282h97q-28 -211 -172 -342t-373 -131q-299 0 -448 212q-148 212 -148 545t153 548q154 215 441 215q225 0 364 -130t174 -337 l-98 -2q-33 178 -143 280q-111 102 -297 103q-133 0 -233 -57q-100 -56 -154 -156z" glyph-name="Ccaron" horiz-adv-x="1523" unicode="Č"/><glyph d="M590 1233l203 250h94l-256 -295h-82l-87 99t-171 196h92zM582 1063q162 0 270 -94t127 -248h-92q-23 119 -101 189t-192 71q-215 0 -298 -140t-83 -332t86 -325t279 -133q134 -1 212 71t105 195h96q-29 -161 -137 -253t-279 -93q-223 0 -341 150q-118 151 -118 393 t122 396q121 154 344 153z" glyph-name="ccaron" horiz-adv-x="1118" unicode="č"/><glyph d="M641 1569l203 250h94l-256 -295h-82l-258 295h92zM293 88h369q518 0 518 641t-498 641h-389v-1282zM197 0v1456h485q460 0 568 -441q32 -126 32 -282q0 -325 -152 -529t-473 -204h-460z" glyph-name="Dcaron" horiz-adv-x="1525" unicode="Ď"/><glyph d="M1106 1255v211h139v-221q-16 -155 -106 -264q-29 12 -54 23q68 100 76 251h-55zM565 51q165 0 265 126q100 127 100 335t-88 338t-268 131q-180 0 -271 -125q-92 -125 -92 -342t95 -340t259 -123zM1016 0h-55l-41 188q-60 -100 -156 -158t-209 -59q-213 0 -327 156 q-114 155 -114 391t118 390q116 154 333 155q101 0 197 -54t164 -161v622h90v-1470z" glyph-name="dcaron" horiz-adv-x="1427" unicode="ď"/><glyph d="M283 78h368q518 0 518 641t-497 641h-389v-639h262v-59h-262v-584zM-18 662v59h204v725h486q323 0 468 -214q132 -193 132 -514q0 -320 -152 -524t-473 -204h-461v672h-204z" glyph-name="Dcroat" horiz-adv-x="1525" unicode="Đ"/><glyph d="M565 51q165 0 265 126q100 127 100 335t-88 338t-268 131q-180 0 -271 -125q-92 -125 -92 -342t95 -340t259 -123zM1016 0h-55l-41 188q-60 -100 -156 -158t-209 -59q-213 0 -327 156q-114 155 -114 391t118 390q116 154 333 155q101 0 197 -54t164 -161v407h-221v82h221 v133h90v-133h194v-82h-194v-1255z" glyph-name="dcroat" horiz-adv-x="1255" unicode="đ"/><glyph d="M940 1530h-506v82h506v-82zM1133 0h-934v1456h917v-86h-821v-563h752v-90h-752v-627h838v-90z" glyph-name="Emacron" horiz-adv-x="1304" unicode="Ē"/><glyph d="M846 1163h-506v82h506v-82zM579 987q-164 -1 -261 -111t-107 -298h711q-2 182 -90 296t-253 113zM580 47q268 0 323 227h92q-29 -139 -139 -221t-276 -82q-215 1 -339 149t-124 392t126 398q127 154 337 153q210 0 324 -142t114 -360l-2 -63h-809q4 -193 101 -322 t272 -129z" glyph-name="emacron" horiz-adv-x="1140" unicode="ē"/><glyph d="M756 1524h-119v141h119v-141zM1133 0h-934v1456h917v-86h-821v-563h752v-90h-752v-627h838v-90z" glyph-name="Edotaccent" horiz-adv-x="1304" unicode="Ė"/><glyph d="M639 1176h-119v141h119v-141zM579 987q-164 -1 -261 -111t-107 -298h711q-2 182 -90 296t-253 113zM580 47q268 0 323 227h92q-29 -139 -139 -221t-276 -82q-215 1 -339 149t-124 392t126 398q127 154 337 153q210 0 324 -142t114 -360l-2 -63h-809q4 -193 101 -322 t272 -129z" glyph-name="edotaccent" horiz-adv-x="1140" unicode="ė"/><glyph d="M651 1575l203 250h94l-256 -295h-82l-87 99t-171 196h92zM1133 0h-934v1456h917v-86h-821v-563h752v-90h-752v-627h838v-90z" glyph-name="Ecaron" horiz-adv-x="1304" unicode="Ě"/><glyph d="M588 1200l203 250h94l-256 -295h-82l-258 295h92zM579 987q-164 -1 -261 -111t-107 -298h711q-2 182 -90 296t-253 113zM580 47q268 0 323 227h92q-29 -139 -139 -221t-276 -82q-215 1 -339 149t-124 392t126 398q127 154 337 153q210 0 324 -142t114 -360l-2 -63h-809 q4 -193 101 -322t272 -129z" glyph-name="ecaron" horiz-adv-x="1140" unicode="ě"/><glyph d="M684 -332v209h139v-219q-16 -158 -106 -264q-29 12 -53 22q68 96 75 252h-55zM223 716q0 -251 119 -447q60 -97 164 -154t242 -58q428 0 428 600h-435v84h525v-741h-37l-53 291q-37 -152 -164 -235t-273 -87q-161 1 -283 61q-221 110 -298 405q-35 132 -35 290 q0 320 146 537q73 106 191 166t269 61q215 0 352 -114t172 -302h-92q-27 160 -138 245q-112 85 -309 85t-325 -139q-166 -183 -166 -548z" glyph-name="Gcommaaccent" horiz-adv-x="1421" unicode="Ģ"/><glyph d="M918 668q0 -146 -109 -241t-272 -95q-113 0 -211 49q-113 -45 -113 -139q0 -125 223 -125h228q172 0 274 -77q102 -76 102 -226t-135 -223t-344 -72q-264 0 -382 122q-67 69 -66 175q0 72 47 140t129 103q-63 21 -107 69t-45 101q0 121 131 195q-110 104 -110 261 t107 253t257 96t254 -69q117 29 117 143q0 8 -8 29h63q10 -13 10 -59t-38 -97t-91 -68l13 -10q76 -89 76 -235zM958 -176q0 102 -79 159q-80 56 -234 56h-274q-78 -17 -130 -75t-53 -148q0 -220 375 -226q395 1 395 234zM836 682q0 127 -85 204t-214 77t-213 -77t-84 -204 t84 -202q84 -74 213 -74t214 74t85 202zM653 1638l-12 4q0 7 8 15zM625 1393v-211h-140v221q14 156 107 264q35 -15 49 -25q-63 -100 -72 -249h56z" glyph-name="gcommaaccent" horiz-adv-x="1255" unicode="ģ"/><glyph d="M481 1556h-506v82h506v-82zM180 0v1470h88v-1470h-88z" glyph-name="Imacron" horiz-adv-x="532" unicode="Ī"/><glyph d="M489 1122h-505v82h505v-82zM285 0h-92v1032h92v-1032z" glyph-name="imacron" horiz-adv-x="483" unicode="ī"/><glyph d="M242 -104q0 -121 108 -158q-14 -20 -43 -57q-158 45 -157 198q0 55 32 121h-2v1470h88v-1470q-26 -57 -26 -104z" glyph-name="Iogonek" horiz-adv-x="509" unicode="Į"/><glyph d="M258 -104q0 -121 109 -158q-14 -20 -43 -57q-158 45 -158 198q0 55 33 121h-6v1032h92v-1032q-27 -57 -27 -104zM297 1315h-119v141h119v-141z" glyph-name="iogonek" horiz-adv-x="483" unicode="į"/><glyph d="M285 0h-92v1032h92v-1032z" glyph-name="dotlessi" horiz-adv-x="475" unicode="ı"/><glyph d="M578 -307v209h139v-219q-17 -159 -107 -265q-29 12 -53 23q68 96 76 252h-55zM295 0h-98v1456h98v-858l811 858h111l-506 -541l567 -915h-115l-522 850l-346 -371v-479z" glyph-name="Kcommaaccent" horiz-adv-x="1376" unicode="Ķ"/><glyph d="M500 -303v209h139v-219q-17 -159 -107 -265q-27 12 -53 23q68 96 76 252h-55zM270 0h-92v1470h92v-1019q138 135 584 581h109l-363 -362q68 -111 209 -334t209 -336h-111l-372 606l-265 -264v-342z" glyph-name="kcommaaccent" horiz-adv-x="1054" unicode="ķ"/><glyph d="M203 1554q58 58 262 246q11 -8 29 -26l28 -29l-291 -219zM1079 0h-880v1456h98v-1366h782v-90z" glyph-name="Lacute" horiz-adv-x="1167" unicode="Ĺ"/><glyph d="M190 1575q86 86 263 246q11 -8 29 -27t28 -29l-291 -219zM180 0v1470h88v-1470h-88z" glyph-name="lacute" horiz-adv-x="483" unicode="ĺ"/><glyph d="M530 -332v209h140v-219q-17 -158 -107 -264q-27 12 -53 22q68 96 76 252h-56zM1079 0h-880v1456h98v-1366h782v-90z" glyph-name="Lcommaaccent" horiz-adv-x="1122" unicode="Ļ"/><glyph d="M150 -332v209h139v-219q-17 -158 -107 -264q-29 12 -53 22q68 96 76 252h-55zM180 0v1470h88v-1470h-88z" glyph-name="lcommaaccent" horiz-adv-x="483" unicode="ļ"/><glyph d="M899 1257v211h139v-221q-16 -155 -106 -264q-27 12 -53 23q68 100 75 251h-55zM1079 0h-880v1456h98v-1366h782v-90z" glyph-name="Lcaron" horiz-adv-x="1167" unicode="Ľ"/><glyph d="M371 1262v211h139v-222q-17 -155 -107 -264q-29 12 -53 23q68 100 76 252h-55zM180 0v1470h88v-1470h-88z" glyph-name="lcaron" horiz-adv-x="559" unicode="ľ"/><glyph d="M229 0v604q-96 -63 -184 -125v92l184 123v762h95v-696q205 139 391 262v-88l-391 -264v-580h784l-8 -90h-871z" glyph-name="Lslash" horiz-adv-x="1150" unicode="Ł"/><glyph d="M233 1460h89v-561l194 131v-80l-194 -135v-825h-89v764l-172 -119v88l172 116v621z" glyph-name="lslash" horiz-adv-x="581" unicode="ł"/><glyph d="M672 1577q58 58 262 246l29 -29q18 -19 28 -27l-291 -219zM1266 0h-113l-860 1321v-1321h-96v1456h114l860 -1317v1317h95v-1456z" glyph-name="Nacute" horiz-adv-x="1462" unicode="Ń"/><glyph d="M670 -332v209h139v-219q-17 -158 -107 -264q-29 12 -53 22q68 96 76 252h-55zM1266 0h-113l-860 1321v-1321h-96v1456h114l860 -1317v1317h95v-1456z" glyph-name="Ncommaaccent" horiz-adv-x="1462" unicode="Ņ"/><glyph d="M535 -332v209h139v-219q-17 -158 -107 -264q-27 12 -53 22q68 96 76 252h-55zM176 0v1032h41l57 -194q139 225 377 225q174 0 263 -98t90 -277v-688h-93v670q-1 158 -65 234t-205 75q-195 0 -284 -129t-89 -350v-500h-92z" glyph-name="ncommaaccent" horiz-adv-x="1165" unicode="ņ"/><glyph d="M823 1145h-506v82h506v-82zM583 51q132 0 219 71t120 171t32 225q0 197 -89 330t-283 133q-100 0 -174 -40q-197 -107 -197 -441q0 -254 153 -378q87 -71 219 -71zM1049 520q0 -242 -122 -396t-346 -153q-224 0 -344 152q-120 153 -120 393t124 394t344 153 q220 0 342 -151q122 -150 122 -392z" glyph-name="omacron" horiz-adv-x="1165" unicode="ō"/><glyph d="M700 53q379 0 463 432q23 113 23 229q0 514 -289 649q-86 40 -197 40q-304 0 -424 -296q-61 -155 -61 -399q0 -243 99 -439q52 -101 150 -159t236 -57zM1186 0v266l-19 -30q-145 -266 -467 -267q-154 1 -270 61t-182 166q-136 215 -135 531q0 456 253 654 q136 108 334 108q158 2 279 -68t188 -192l19 -33v260h889v-86h-795v-563h723v-92h-723v-625h811v-90h-905z" glyph-name="OE" horiz-adv-x="2183" unicode="Œ"/><glyph d="M1733 578q0 174 -86 292t-249 117q-164 1 -260 -113t-106 -296h701zM207 522q1 -192 77 -322q40 -68 114 -109q74 -40 174 -40q276 0 348 294q18 79 18 173q0 201 -87 332t-279 131t-278 -133q-87 -133 -87 -326zM1032 498q0 -190 96 -320t269 -131q133 -1 213 61 t104 166h92q-22 -139 -132 -221t-277 -82q-276 0 -410 287q-59 -133 -165 -210t-253 -77q-223 0 -341 151q-118 152 -118 392t122 394q120 154 341 155q141 0 249 -75t161 -204q135 279 410 279q209 0 323 -141t113 -361v-35l-2 -28h-795z" glyph-name="oe" horiz-adv-x="1929" unicode="œ"/><glyph d="M494 1548q96 96 262 246l28 -28q18 -18 29 -27l-291 -219zM293 723h403q395 0 396 330q0 159 -98 239t-308 80h-393v-649zM197 0v1456h491q260 0 381 -110t121 -293q0 -141 -75 -241t-218 -144q43 -94 149 -320t160 -348h-108l-293 641h-512v-641h-96z" glyph-name="Racute" horiz-adv-x="1308" unicode="Ŕ"/><glyph d="M274 1174q76 76 263 245l28 -28q19 -19 29 -27l-291 -219zM178 0v1032h39l59 -207q109 221 365 222q33 0 51 -5q0 -45 -6 -88q-37 6 -78 7q-178 0 -258 -124t-80 -321v-516h-92z" glyph-name="racute" horiz-adv-x="735" unicode="ŕ"/><glyph d="M598 -332v209h139v-219q-16 -158 -106 -264q-29 12 -53 22q68 96 75 252h-55zM293 723h403q395 0 396 330q0 159 -98 239t-308 80h-393v-649zM197 0v1456h491q260 0 381 -110t121 -293q0 -141 -75 -241t-218 -144q43 -94 149 -320t160 -348h-108l-293 641h-512v-641h-96z " glyph-name="Rcommaaccent" horiz-adv-x="1308" unicode="Ŗ"/><glyph d="M150 -332v209h139v-219q-17 -158 -107 -264q-29 12 -53 22q68 96 76 252h-55zM178 0v1032h39l59 -207q109 221 365 222q33 0 51 -5q0 -45 -6 -88q-37 6 -78 7q-178 0 -258 -124t-80 -321v-516h-92z" glyph-name="rcommaaccent" horiz-adv-x="735" unicode="ŗ"/><glyph d="M293 723h403q395 0 396 330q0 159 -98 239t-308 80h-393v-649zM197 0v1456h491q260 0 381 -110t121 -293q0 -141 -75 -241t-218 -144q43 -94 149 -320t160 -348h-108l-293 641h-512v-641h-96zM580 -254v211h139v-221q-17 -155 -107 -264q-29 12 -53 22q68 100 76 252h-55 z" glyph-name="Rcaron" horiz-adv-x="1423" unicode="Ř"/><glyph d="M178 0v1032h39l59 -207q109 221 365 222q33 0 51 -5q0 -45 -6 -88q-37 6 -78 7q-178 0 -258 -124t-80 -321v-516h-92zM170 -281v211h139v-221q-16 -155 -106 -264q-29 12 -53 23q68 100 75 251h-55z" glyph-name="rcaron" horiz-adv-x="735" unicode="ř"/><glyph d="M602 1614l262 246l29 -29q19 -19 29 -27l-291 -219zM664 53q196 0 303 89q106 89 106 239q0 115 -75 196t-230 105q-306 38 -416 84t-159 126q-50 79 -52 206q1 184 145 287t359 103t347 -108q132 -109 163 -270h-98q-76 293 -416 293q-186 0 -295 -80 q-108 -80 -108 -213t68 -203q68 -69 344 -106t402 -135t126 -286t-144 -300q-144 -111 -374 -111q-232 1 -382 107t-178 309h99q31 -162 149 -247q120 -85 316 -85z" glyph-name="Sacute" horiz-adv-x="1337" unicode="Ś"/><glyph d="M424 1196q58 58 262 246q10 -8 28 -28t29 -28l-290 -219zM539 49q145 1 224 59t79 158q0 178 -215 207q-293 34 -391 106q-97 72 -97 200t112 206q111 78 277 78t264 -78t117 -207h-84q-39 205 -303 205q-147 0 -219 -56t-72 -157q0 -102 69 -134t335 -75 q303 -49 303 -293q0 -135 -110 -216t-290 -81t-300 82q-118 82 -132 232h93q39 -236 340 -236z" glyph-name="sacute" horiz-adv-x="1001" unicode="ś"/><glyph d="M668 1651l202 250h95l-256 -295h-82q-29 33 -119 135t-139 160h92zM664 53q196 0 303 89q106 89 106 239q0 115 -75 196t-230 105q-306 38 -416 84t-159 126q-50 79 -52 206q1 184 145 287t359 103t347 -108q132 -109 163 -270h-98q-76 293 -416 293q-186 0 -295 -80 q-108 -80 -108 -213t68 -203q68 -69 344 -106t402 -135t126 -286t-144 -300q-144 -111 -374 -111q-232 1 -382 107t-178 309h99q31 -162 149 -247q120 -85 316 -85z" glyph-name="Scaron" horiz-adv-x="1216" unicode="Š"/><glyph d="M537 1219l202 249h95l-256 -294h-82q-119 135 -169 192q-51 57 -89 102h92zM539 49q145 1 224 59t79 158q0 178 -215 207q-293 34 -391 106q-97 72 -97 200t112 206q111 78 277 78t264 -78t117 -207h-84q-39 205 -303 205q-147 0 -219 -56t-72 -157q0 -102 69 -134 t335 -75q303 -49 303 -293q0 -135 -110 -216t-290 -81t-300 82q-118 82 -132 232h93q39 -236 340 -236z" glyph-name="scaron" horiz-adv-x="983" unicode="š"/><glyph d="M578 1577l202 250h94l-256 -295h-81q-29 33 -122 138t-136 157h92zM1114 1370h-491v-1370h-97v1370h-491v86h1079v-86z" glyph-name="Tcaron" horiz-adv-x="1218" unicode="Ť"/><glyph d="M492 1448v211h139v-221q-17 -155 -107 -264q-29 12 -53 22q68 100 76 252h-55zM500 61q90 0 153 21l9 -76q-94 -25 -170 -24q-145 0 -200 86q-54 86 -54 239v649h-187v76h187v250q16 8 48 26t44 23v-299h311v-76h-311v-684q0 -211 170 -211z" glyph-name="tcaron" horiz-adv-x="712" unicode="ť"/><glyph d="M948 1544h-506v82h506v-82zM1223 551q0 -283 -133 -433q-134 -150 -390 -149q-256 0 -389 151t-133 435v901h98v-907q0 -494 425 -494t425 494v907h97v-905z" glyph-name="Umacron" horiz-adv-x="1402" unicode="Ū"/><glyph d="M813 1153h-506v82h506v-82zM164 344v690h92v-667q0 -162 61 -238t203 -76t246 99q72 68 96 150t25 233v499h92v-1034h-51l-47 199q-68 -109 -166 -168t-207 -60q-344 0 -344 373z" glyph-name="umacron" horiz-adv-x="1157" unicode="ū"/><glyph d="M825 1722q0 63 -35 103q-36 39 -98 39t-97 -39q-36 -39 -36 -103t36 -101q36 -38 97 -38t98 38q35 38 35 101zM891 1722q0 -90 -57 -143q-58 -53 -142 -53t-140 53t-56 143t54 144t142 53q88 0 144 -53q55 -54 55 -144zM1223 551q0 -283 -133 -433q-134 -150 -390 -149 q-256 0 -389 151t-133 435v901h98v-907q0 -494 425 -494t425 494v907h97v-905z" glyph-name="Uring" horiz-adv-x="1402" unicode="Ů"/><glyph d="M705 1364q0 63 -36 102q-35 39 -97 39t-98 -39t-36 -102t36 -101t97 -38t98 38q36 38 36 101zM770 1364q0 -90 -57 -143t-141 -53t-141 52q-56 54 -56 144t54 143t142 53q87 0 143 -52q56 -54 56 -144zM164 344v690h92v-667q0 -162 61 -238t203 -76t246 99q72 68 96 150 t25 233v499h92v-1034h-51l-47 199q-68 -109 -166 -168t-207 -60q-344 0 -344 373z" glyph-name="uring" horiz-adv-x="1157" unicode="ů"/><glyph d="M870 1554h-49l271 287h112zM477 1554h-51l272 287h111zM1223 551q0 -283 -133 -433q-134 -150 -390 -149q-256 0 -389 151t-133 435v901h98v-907q0 -494 425 -494t425 494v907h97v-905z" glyph-name="Uhungarumlaut" horiz-adv-x="1402" unicode="Ű"/><glyph d="M709 1184h-50l271 286h112zM315 1184h-51l273 286h110zM164 344v690h92v-667q0 -162 61 -238t203 -76t246 99q72 68 96 150t25 233v499h92v-1034h-51l-47 199q-68 -109 -166 -168t-207 -60q-344 0 -344 373z" glyph-name="uhungarumlaut" horiz-adv-x="1157" unicode="ű"/><glyph d="M725 -121q0 -121 109 -158q-14 -20 -43 -57q-158 45 -158 199q0 50 26 107q-225 12 -353 156t-128 429v901h98v-907q0 -494 425 -494t425 494v907h97v-905q1 -283 -127 -425t-350 -156q-21 -49 -21 -91z" glyph-name="Uogonek" horiz-adv-x="1402" unicode="Ų"/><glyph d="M952 -104q0 -121 109 -158q-14 -20 -43 -57q-158 45 -158 198q0 55 33 121h35l-47 199q-68 -109 -166 -168t-207 -60q-344 0 -344 373v690h92v-667q0 -162 61 -238t203 -76t246 99q72 68 96 150t25 233v499h92v-1034q-27 -57 -27 -104z" glyph-name="uogonek" horiz-adv-x="1157" unicode="ų"/><glyph d="M442 1520h-110v133h110v-133zM803 1520h-113v133h113v-133zM629 0h-94v604q-282 478 -508 852h108l449 -768q110 186 450 768h99l-504 -852v-604z" glyph-name="Ydieresis" horiz-adv-x="1159" unicode="Ÿ"/><glyph d="M481 1550q58 58 262 246q15 -12 58 -55l-291 -219zM1147 0h-1057v96l936 1276h-922v84h1029v-96l-938 -1272h952v-88z" glyph-name="Zacute" horiz-adv-x="1306" unicode="Ź"/><glyph d="M406 1163q96 96 262 246l28 -29q18 -18 29 -26l-291 -219zM891 0h-801v96l684 858h-676v78h772v-92l-682 -860h703v-80z" glyph-name="zacute" horiz-adv-x="1067" unicode="ź"/><glyph d="M670 1540h-119v141h119v-141zM1147 0h-1057v96l936 1276h-922v84h1029v-96l-938 -1272h952v-88z" glyph-name="Zdotaccent" horiz-adv-x="1232" unicode="Ż"/><glyph d="M563 1147h-119v141h119v-141zM891 0h-801v96l684 858h-676v78h772v-92l-682 -860h703v-80z" glyph-name="zdotaccent" horiz-adv-x="964" unicode="ż"/><glyph d="M627 1573l202 250h95l-256 -295h-82l-258 295h92zM1147 0h-1057v96l936 1276h-922v84h1029v-96l-938 -1272h952v-88z" glyph-name="Zcaron" horiz-adv-x="1232" unicode="Ž"/><glyph d="M508 1159l203 250h94l-256 -295h-82l-258 295h92zM891 0h-801v96l684 858h-676v78h772v-92l-682 -860h703v-80z" glyph-name="zcaron" horiz-adv-x="964" unicode="ž"/><glyph d="M142 -227q81 0 130 45t70 157q10 53 88 445t88 444h-201l5 37q2 5 2 21v22h211q51 274 90 356q71 158 260 158q43 0 131 -18q-10 -58 -15 -76q-55 18 -108 18t-83 -6t-54 -28t-36 -39q-14 -19 -28 -65t-20 -78t-22 -104t-25 -118h301q0 -14 -11 -80h-307 q-33 -162 -96 -480t-94 -464q-68 -227 -289 -227q-57 0 -127 18l6 33q0 8 4 22t4 21q45 -14 126 -14z" glyph-name="florin" horiz-adv-x="1146" unicode="ƒ"/><glyph d="M82 1196l252 295h84q78 -90 252 -295h-88l-207 238l-203 -238h-90z" glyph-name="circumflex" horiz-adv-x="751" unicode="ˆ"/><glyph d="M375 1448l203 250h94l-256 -295h-82l-87 99t-171 196h92z" glyph-name="caron" horiz-adv-x="749" unicode="ˇ"/><glyph d="M377 1266q84 0 138 53t63 143h73q-8 -124 -81 -194q-72 -70 -192 -70t-193 71t-79 193h76q6 -96 58 -146t137 -50z" glyph-name="breve" horiz-adv-x="759" unicode="˘"/><glyph d="M393 1307h-119v141h119v-141z" glyph-name="dotaccent" horiz-adv-x="669" unicode="˙"/><glyph d="M438 1395q0 63 -36 102t-97 39t-97 -39t-36 -102t36 -101t97 -39q61 1 97 39t36 101zM504 1395q0 -89 -58 -143t-141 -54q-84 0 -140 53t-56 143t54 144q54 53 142 53q87 0 143 -53t56 -143z" glyph-name="ring" horiz-adv-x="612" unicode="˚"/><glyph d="M283 -186q0 -121 108 -158q-14 -20 -43 -57q-158 45 -158 198q0 55 33 121h86q-26 -57 -26 -104z" glyph-name="ogonek" horiz-adv-x="565" unicode="˛"/><glyph d="M240 1436q61 0 153 -54q76 -49 127 -49q78 0 113 80l51 -20q-41 -131 -166 -131q-61 0 -152 51t-133 51q-78 0 -110 -78l-53 17q39 133 170 133z" glyph-name="tilde" horiz-adv-x="755" unicode="˜"/><glyph d="M504 1184h-49l270 286h113zM111 1184h-52l273 286h110z" glyph-name="hungarumlaut" horiz-adv-x="858" unicode="˝"/><glyph d="M1085 846q0 76 -54 116t-142 39h-195v-315h193q88 0 143 42t55 118zM1186 844q0 -115 -86 -178t-211 -64h-195v-274h-102v759h303q129 0 210 -64t81 -179zM1528 705q0 289 -196 483t-488 192q-292 0 -487 -194t-195 -484q0 -288 196 -482t487 -194t487 196 q196 194 196 483zM1583 705q0 -309 -214 -521t-526 -211q-312 0 -526 210q-213 210 -213 519q0 310 214 520t526 210t526 -209q213 -209 213 -518z" glyph-name="pi" horiz-adv-x="1689" unicode="π"/><glyph d="M1061 559h-979v90h979v-90z" glyph-name="endash" horiz-adv-x="1140" unicode="–"/><glyph d="M2075 559h-2001v90h2001v-90z" glyph-name="emdash" horiz-adv-x="2148" unicode="—"/><glyph d="M289 1276v-211h-139v221q14 155 106 264q8 -4 26 -11t25 -11q-66 -102 -74 -252h56z" glyph-name="quoteleft" horiz-adv-x="432" unicode="‘"/><glyph d="M174 1307v211h139v-222q-14 -155 -106 -264q-12 4 -53 21q68 104 75 254h-55z" glyph-name="quoteright" horiz-adv-x="411" unicode="’"/><glyph d="M150 0v209h139v-219q-15 -155 -107 -264q-27 12 -53 22q68 100 76 252h-55z" glyph-name="quotesinglbase" horiz-adv-x="479" unicode="‚"/><glyph d="M586 1276v-211h-140v221q19 160 107 264q16 -8 51 -22q-66 -102 -74 -252h56zM287 1276v-211h-140v221q15 155 107 264q37 -16 49 -22q-63 -102 -72 -252h56z" glyph-name="quotedblleft" horiz-adv-x="729" unicode="“"/><glyph d="M172 1341v211h139v-221q-18 -160 -106 -264l-27 12t-26 11q68 100 75 251h-55zM471 1341v211h139v-221q-16 -155 -106 -264q-2 0 -51 23q66 102 73 251h-55z" glyph-name="quotedblright" horiz-adv-x="718" unicode="”"/><glyph d="M475 0v209h139v-219q-14 -155 -106 -264q-10 4 -26 11t-25 11q66 102 73 252h-55zM145 0v209h140v-219q-17 -158 -105 -264q-20 10 -53 22q68 100 76 252h-58z" glyph-name="quotedblbase" horiz-adv-x="864" unicode="„"/><glyph d="M717 1059h-260v-504h-95v496h-266v86h256v270h99v-262h266v-86z" glyph-name="dagger" horiz-adv-x="813" unicode="†"/><glyph d="M963 213h-392v-434h-88v434h-391v78h391v667h-393v74h393v424h88v-424h392v-74h-392v-667h392v-78z" glyph-name="daggerdbl" horiz-adv-x="1052" unicode="‡"/><glyph d="M637 671q0 -105 -71 -175t-174 -70t-174 71t-71 175t71 173t175 69t174 -70q70 -68 70 -173z" glyph-name="bullet" horiz-adv-x="784" unicode="•"/><glyph d="M920 0h-148v168h148v-168zM313 0h-147v168h147v-168zM1526 0h-148v168h148v-168z" glyph-name="ellipsis" horiz-adv-x="1691" unicode="…"/><glyph d="M365 -10q254 404 903 1454h94l-911 -1456q-16 0 -43 1t-43 1zM420 741q115 0 173 85t58 238t-58 238t-175 84q-229 0 -229 -322t231 -323zM2075 39q229 0 229 326q0 153 -57 237t-173 84t-174 -85t-58 -239t58 -238q58 -85 175 -85zM1067 365q0 -326 230 -326t233 326 q0 153 -58 237t-175 84q-116 0 -173 -85t-57 -236zM2075 -33q-154 -1 -236 105t-82 290t84 291t234 107q151 0 233 -106t82 -288q0 -183 -80 -291t-235 -108zM735 1066q1 -184 -81 -292t-233 -108t-235 106t-84 290t84 292t234 108t232 -106t83 -290zM1299 -33 q-155 1 -237 107t-83 290q0 184 85 289q86 107 236 107t233 -106t83 -288q0 -183 -81 -291t-236 -108z" glyph-name="perthousand" horiz-adv-x="2482" unicode="‰"/><glyph d="M94 557q119 177 291 416l84 -64l-254 -354q68 -98 256 -365l-86 -57z" glyph-name="guilsinglleft" horiz-adv-x="610" unicode="‹"/><glyph d="M184 133q-60 43 -86 57l256 365q-125 180 -254 354l84 64q131 -182 291 -416z" glyph-name="guilsinglright" horiz-adv-x="610" unicode="›"/><glyph d="M-150 6l893 1428q19 -13 66 -37l-889 -1432q-51 31 -70 41z" glyph-name="fraction" horiz-adv-x="677" unicode="⁄"/><glyph d="M215 718q0 58 6 111h-153l8 74h151q37 251 183 399t360 148q262 0 387 -221l-63 -45q-109 186 -326 186q-188 0 -300 -126t-140 -341h581l-24 -74h-566q-4 -69 -4 -119t4 -120h500l-24 -74h-469q28 -211 140 -338t296 -127q129 0 207 49t133 158l61 -35 q-115 -252 -401 -252q-224 1 -362 147t-173 398h-161l10 74h143q-4 70 -4 128z" glyph-name="Euro" horiz-adv-x="1214" unicode="€"/><glyph d="M643 1391h-262v-748h-78v748h-260v67h600v-67zM887 643h-68v815h115l276 -710q225 580 277 710h115v-815h-70v703l-19 4q-95 -233 -276 -695h-55l-275 695l-20 -4v-703z" glyph-name="trademark" horiz-adv-x="1765" unicode="™"/><glyph d="M109 188v1080h1079v-1080h-1079zM440 763q0 30 -8 30q-16 -1 -16 -5t5 -4t5 -44t-33 -73q-10 -11 -14 -12q-4 0 -4 13l-4 116q2 2 2 6t-4 5l-17 -11q4 -45 4 -52t-22 -39q-22 -31 -26 -31q-3 0 -3 47t-6 77q-2 10 -16 11q-57 0 -88 -25q-31 -26 -31 -62t33 -36 q16 0 25 10t9 24t-10 13q-10 0 -10 -8l6 -15q1 -18 -21 -18t-22 36t34 54t66 18q10 0 11 -26l6 -119q0 -4 4 -4q25 0 61 76l4 -72q0 -4 11 -4q35 16 52 55t17 69zM471 723h2q18 0 19 -33v-2q0 -45 -25 -45q-18 0 -18 25v4q-1 51 22 51zM481 731q-21 0 -35 -18 q-14 -19 -14 -35t1 -22t9 -12q8 -7 21 -7q45 0 45 59q0 35 -27 35zM522 709q0 8 10 8t11 -25l-8 -51l4 -4q14 0 14 8v2q0 66 16 66h2l9 -4l8 8q0 14 -15 14l-10 -10q0 -1 -8 -21q-7 31 -14 31t-17 -8t-10 -16l4 -9l4 4v7zM641 700v-12q0 -8 -7 -24t-22 -17q-14 0 -14 24 t8 31q9 21 22 21t13 -23zM641 659v-8q0 -16 10 -16q11 0 19 8t10 16l-4 5q-4 -1 -4 -9t-8 -8q-8 -1 -8 7t6 71v6q10 50 10 57t-20 7q-20 -1 -19 -7q0 -6 4 -5t10 1t6 -6q0 -59 -8 -59l-2 2q-1 8 -19 8q-18 1 -30 -23t-12 -46t22 -23q16 0 26 11t11 11zM716 721l21 -8 q6 0 6 8t-14 8h-2q-33 0 -33 -24q0 -14 18 -26q18 -11 19 -14q2 -3 2 -13t-16 -9q-16 0 -17 8v2q0 8 -8 9q-6 0 -6 -7q0 -18 30 -18t29 27q0 12 -15 23t-19 15t-4 12t9 7zM822 631q16 0 22 18l2 4q0 4 -4 4q-4 -2 -4 -6q-4 -10 -10 -10t-7 4q0 4 5 21t5 41q0 25 -24 24 q-12 0 -19 -9q-6 -9 -6 -11l-4 -4h-2l12 84q0 4 -20 4t-18 -9q0 -2 6 -2h8q6 0 6 -8l-6 -53v-2q-4 -41 -8 -59l-4 -21q0 -2 9 -2t9 4v16q13 60 33 60q14 0 14 -10v-4l-12 -64q1 -10 17 -10zM881 647q-13 0 -13 30t27 46q14 0 14 -38t-28 -38zM925 645q-5 1 -5 19t6 36t6 21 l2 2v2q0 2 -6 2h-2q-8 0 -10 -5t-3 -5q-8 12 -20 12t-35 -33q-6 -18 -6 -32q0 -27 22 -27q11 0 31 20q2 0 2 -4v-8q-1 -8 9 -8t19 6t9 12t-4 7q-10 -17 -15 -17zM977 717q0 4 10 4q25 0 25 -39t-25 -39q-16 0 -16 14v5l6 47v8zM973 764v-2q-6 0 -6 -6l-2 -19v-6 q0 -8 -15 -15q-14 -6 -14 -14t4 -8l16 15q0 4 5 4l2 -2l-11 -76q0 -23 -8 -23h-8q-2 0 -2 -2q0 -10 24 -10t22 4q-1 4 -3 4h-6q-6 0 -6 16t4 17q12 -4 23 -4q12 0 24 14t12 39q0 39 -33 39q-8 -2 -14 -2l-2 2l4 31l-4 4h-6zM1065 719h2q12 -1 12 -21t-18 -20q-10 0 -10 10 t5 21q5 10 9 10zM1055 672h2q17 0 27 15t10 24q0 18 -18 18t-29 -20q-13 -20 -13 -44t15 -24q8 -4 18 -4t22 6t13 14q0 4 -4 5q-4 0 -4 -5q-8 -14 -23 -14q-20 0 -20 25q0 4 4 4z" glyph-name="uni2126" horiz-adv-x="1261" unicode="Ω"/><glyph d="M109 188v1080h1079v-1080h-1079zM440 763q0 30 -8 30q-16 -1 -16 -5t5 -4t5 -44t-33 -73q-10 -11 -14 -12q-4 0 -4 13l-4 116q2 2 2 6t-4 5l-17 -11q4 -45 4 -52t-22 -39q-22 -31 -26 -31q-3 0 -3 47t-6 77q-2 10 -16 11q-57 0 -88 -25q-31 -26 -31 -62t33 -36 q16 0 25 10t9 24t-10 13q-10 0 -10 -8l6 -15q1 -18 -21 -18t-22 36t34 54t66 18q10 0 11 -26l6 -119q0 -4 4 -4q25 0 61 76l4 -72q0 -4 11 -4q35 16 52 55t17 69zM471 723h2q18 0 19 -33v-2q0 -45 -25 -45q-18 0 -18 25v4q-1 51 22 51zM481 731q-21 0 -35 -18 q-14 -19 -14 -35t1 -22t9 -12q8 -7 21 -7q45 0 45 59q0 35 -27 35zM522 709q0 8 10 8t11 -25l-8 -51l4 -4q14 0 14 8v2q0 66 16 66h2l9 -4l8 8q0 14 -15 14l-10 -10q0 -1 -8 -21q-7 31 -14 31t-17 -8t-10 -16l4 -9l4 4v7zM641 700v-12q0 -8 -7 -24t-22 -17q-14 0 -14 24 t8 31q9 21 22 21t13 -23zM641 659v-8q0 -16 10 -16q11 0 19 8t10 16l-4 5q-4 -1 -4 -9t-8 -8q-8 -1 -8 7t6 71v6q10 50 10 57t-20 7q-20 -1 -19 -7q0 -6 4 -5t10 1t6 -6q0 -59 -8 -59l-2 2q-1 8 -19 8q-18 1 -30 -23t-12 -46t22 -23q16 0 26 11t11 11zM716 721l21 -8 q6 0 6 8t-14 8h-2q-33 0 -33 -24q0 -14 18 -26q18 -11 19 -14q2 -3 2 -13t-16 -9q-16 0 -17 8v2q0 8 -8 9q-6 0 -6 -7q0 -18 30 -18t29 27q0 12 -15 23t-19 15t-4 12t9 7zM822 631q16 0 22 18l2 4q0 4 -4 4q-4 -2 -4 -6q-4 -10 -10 -10t-7 4q0 4 5 21t5 41q0 25 -24 24 q-12 0 -19 -9q-6 -9 -6 -11l-4 -4h-2l12 84q0 4 -20 4t-18 -9q0 -2 6 -2h8q6 0 6 -8l-6 -53v-2q-4 -41 -8 -59l-4 -21q0 -2 9 -2t9 4v16q13 60 33 60q14 0 14 -10v-4l-12 -64q1 -10 17 -10zM881 647q-13 0 -13 30t27 46q14 0 14 -38t-28 -38zM925 645q-5 1 -5 19t6 36t6 21 l2 2v2q0 2 -6 2h-2q-8 0 -10 -5t-3 -5q-8 12 -20 12t-35 -33q-6 -18 -6 -32q0 -27 22 -27q11 0 31 20q2 0 2 -4v-8q-1 -8 9 -8t19 6t9 12t-4 7q-10 -17 -15 -17zM977 717q0 4 10 4q25 0 25 -39t-25 -39q-16 0 -16 14v5l6 47v8zM973 764v-2q-6 0 -6 -6l-2 -19v-6 q0 -8 -15 -15q-14 -6 -14 -14t4 -8l16 15q0 4 5 4l2 -2l-11 -76q0 -23 -8 -23h-8q-2 0 -2 -2q0 -10 24 -10t22 4q-1 4 -3 4h-6q-6 0 -6 16t4 17q12 -4 23 -4q12 0 24 14t12 39q0 39 -33 39q-8 -2 -14 -2l-2 2l4 31l-4 4h-6zM1065 719h2q12 -1 12 -21t-18 -20q-10 0 -10 10 t5 21q5 10 9 10zM1055 672h2q17 0 27 15t10 24q0 18 -18 18t-29 -20q-13 -20 -13 -44t15 -24q8 -4 18 -4t22 6t13 14q0 4 -4 5q-4 0 -4 -5q-8 -14 -23 -14q-20 0 -20 25q0 4 4 4z" glyph-name="partialdiff" horiz-adv-x="1261" unicode="∂"/><glyph d="M109 188v1080h1079v-1080h-1079zM440 763q0 30 -8 30q-16 -1 -16 -5t5 -4t5 -44t-33 -73q-10 -11 -14 -12q-4 0 -4 13l-4 116q2 2 2 6t-4 5l-17 -11q4 -45 4 -52t-22 -39q-22 -31 -26 -31q-3 0 -3 47t-6 77q-2 10 -16 11q-57 0 -88 -25q-31 -26 -31 -62t33 -36 q16 0 25 10t9 24t-10 13q-10 0 -10 -8l6 -15q1 -18 -21 -18t-22 36t34 54t66 18q10 0 11 -26l6 -119q0 -4 4 -4q25 0 61 76l4 -72q0 -4 11 -4q35 16 52 55t17 69zM471 723h2q18 0 19 -33v-2q0 -45 -25 -45q-18 0 -18 25v4q-1 51 22 51zM481 731q-21 0 -35 -18 q-14 -19 -14 -35t1 -22t9 -12q8 -7 21 -7q45 0 45 59q0 35 -27 35zM522 709q0 8 10 8t11 -25l-8 -51l4 -4q14 0 14 8v2q0 66 16 66h2l9 -4l8 8q0 14 -15 14l-10 -10q0 -1 -8 -21q-7 31 -14 31t-17 -8t-10 -16l4 -9l4 4v7zM641 700v-12q0 -8 -7 -24t-22 -17q-14 0 -14 24 t8 31q9 21 22 21t13 -23zM641 659v-8q0 -16 10 -16q11 0 19 8t10 16l-4 5q-4 -1 -4 -9t-8 -8q-8 -1 -8 7t6 71v6q10 50 10 57t-20 7q-20 -1 -19 -7q0 -6 4 -5t10 1t6 -6q0 -59 -8 -59l-2 2q-1 8 -19 8q-18 1 -30 -23t-12 -46t22 -23q16 0 26 11t11 11zM716 721l21 -8 q6 0 6 8t-14 8h-2q-33 0 -33 -24q0 -14 18 -26q18 -11 19 -14q2 -3 2 -13t-16 -9q-16 0 -17 8v2q0 8 -8 9q-6 0 -6 -7q0 -18 30 -18t29 27q0 12 -15 23t-19 15t-4 12t9 7zM822 631q16 0 22 18l2 4q0 4 -4 4q-4 -2 -4 -6q-4 -10 -10 -10t-7 4q0 4 5 21t5 41q0 25 -24 24 q-12 0 -19 -9q-6 -9 -6 -11l-4 -4h-2l12 84q0 4 -20 4t-18 -9q0 -2 6 -2h8q6 0 6 -8l-6 -53v-2q-4 -41 -8 -59l-4 -21q0 -2 9 -2t9 4v16q13 60 33 60q14 0 14 -10v-4l-12 -64q1 -10 17 -10zM881 647q-13 0 -13 30t27 46q14 0 14 -38t-28 -38zM925 645q-5 1 -5 19t6 36t6 21 l2 2v2q0 2 -6 2h-2q-8 0 -10 -5t-3 -5q-8 12 -20 12t-35 -33q-6 -18 -6 -32q0 -27 22 -27q11 0 31 20q2 0 2 -4v-8q-1 -8 9 -8t19 6t9 12t-4 7q-10 -17 -15 -17zM977 717q0 4 10 4q25 0 25 -39t-25 -39q-16 0 -16 14v5l6 47v8zM973 764v-2q-6 0 -6 -6l-2 -19v-6 q0 -8 -15 -15q-14 -6 -14 -14t4 -8l16 15q0 4 5 4l2 -2l-11 -76q0 -23 -8 -23h-8q-2 0 -2 -2q0 -10 24 -10t22 4q-1 4 -3 4h-6q-6 0 -6 16t4 17q12 -4 23 -4q12 0 24 14t12 39q0 39 -33 39q-8 -2 -14 -2l-2 2l4 31l-4 4h-6zM1065 719h2q12 -1 12 -21t-18 -20q-10 0 -10 10 t5 21q5 10 9 10zM1055 672h2q17 0 27 15t10 24q0 18 -18 18t-29 -20q-13 -20 -13 -44t15 -24q8 -4 18 -4t22 6t13 14q0 4 -4 5q-4 0 -4 -5q-8 -14 -23 -14q-20 0 -20 25q0 4 4 4z" glyph-name="uni2206" horiz-adv-x="1261" unicode="∆"/><glyph d="M109 188v1080h1079v-1080h-1079zM440 763q0 30 -8 30q-16 -1 -16 -5t5 -4t5 -44t-33 -73q-10 -11 -14 -12q-4 0 -4 13l-4 116q2 2 2 6t-4 5l-17 -11q4 -45 4 -52t-22 -39q-22 -31 -26 -31q-3 0 -3 47t-6 77q-2 10 -16 11q-57 0 -88 -25q-31 -26 -31 -62t33 -36 q16 0 25 10t9 24t-10 13q-10 0 -10 -8l6 -15q1 -18 -21 -18t-22 36t34 54t66 18q10 0 11 -26l6 -119q0 -4 4 -4q25 0 61 76l4 -72q0 -4 11 -4q35 16 52 55t17 69zM471 723h2q18 0 19 -33v-2q0 -45 -25 -45q-18 0 -18 25v4q-1 51 22 51zM481 731q-21 0 -35 -18 q-14 -19 -14 -35t1 -22t9 -12q8 -7 21 -7q45 0 45 59q0 35 -27 35zM522 709q0 8 10 8t11 -25l-8 -51l4 -4q14 0 14 8v2q0 66 16 66h2l9 -4l8 8q0 14 -15 14l-10 -10q0 -1 -8 -21q-7 31 -14 31t-17 -8t-10 -16l4 -9l4 4v7zM641 700v-12q0 -8 -7 -24t-22 -17q-14 0 -14 24 t8 31q9 21 22 21t13 -23zM641 659v-8q0 -16 10 -16q11 0 19 8t10 16l-4 5q-4 -1 -4 -9t-8 -8q-8 -1 -8 7t6 71v6q10 50 10 57t-20 7q-20 -1 -19 -7q0 -6 4 -5t10 1t6 -6q0 -59 -8 -59l-2 2q-1 8 -19 8q-18 1 -30 -23t-12 -46t22 -23q16 0 26 11t11 11zM716 721l21 -8 q6 0 6 8t-14 8h-2q-33 0 -33 -24q0 -14 18 -26q18 -11 19 -14q2 -3 2 -13t-16 -9q-16 0 -17 8v2q0 8 -8 9q-6 0 -6 -7q0 -18 30 -18t29 27q0 12 -15 23t-19 15t-4 12t9 7zM822 631q16 0 22 18l2 4q0 4 -4 4q-4 -2 -4 -6q-4 -10 -10 -10t-7 4q0 4 5 21t5 41q0 25 -24 24 q-12 0 -19 -9q-6 -9 -6 -11l-4 -4h-2l12 84q0 4 -20 4t-18 -9q0 -2 6 -2h8q6 0 6 -8l-6 -53v-2q-4 -41 -8 -59l-4 -21q0 -2 9 -2t9 4v16q13 60 33 60q14 0 14 -10v-4l-12 -64q1 -10 17 -10zM881 647q-13 0 -13 30t27 46q14 0 14 -38t-28 -38zM925 645q-5 1 -5 19t6 36t6 21 l2 2v2q0 2 -6 2h-2q-8 0 -10 -5t-3 -5q-8 12 -20 12t-35 -33q-6 -18 -6 -32q0 -27 22 -27q11 0 31 20q2 0 2 -4v-8q-1 -8 9 -8t19 6t9 12t-4 7q-10 -17 -15 -17zM977 717q0 4 10 4q25 0 25 -39t-25 -39q-16 0 -16 14v5l6 47v8zM973 764v-2q-6 0 -6 -6l-2 -19v-6 q0 -8 -15 -15q-14 -6 -14 -14t4 -8l16 15q0 4 5 4l2 -2l-11 -76q0 -23 -8 -23h-8q-2 0 -2 -2q0 -10 24 -10t22 4q-1 4 -3 4h-6q-6 0 -6 16t4 17q12 -4 23 -4q12 0 24 14t12 39q0 39 -33 39q-8 -2 -14 -2l-2 2l4 31l-4 4h-6zM1065 719h2q12 -1 12 -21t-18 -20q-10 0 -10 10 t5 21q5 10 9 10zM1055 672h2q17 0 27 15t10 24q0 18 -18 18t-29 -20q-13 -20 -13 -44t15 -24q8 -4 18 -4t22 6t13 14q0 4 -4 5q-4 0 -4 -5q-8 -14 -23 -14q-20 0 -20 25q0 4 4 4z" glyph-name="product" horiz-adv-x="1261" unicode="∏"/><glyph d="M109 188v1080h1079v-1080h-1079zM440 763q0 30 -8 30q-16 -1 -16 -5t5 -4t5 -44t-33 -73q-10 -11 -14 -12q-4 0 -4 13l-4 116q2 2 2 6t-4 5l-17 -11q4 -45 4 -52t-22 -39q-22 -31 -26 -31q-3 0 -3 47t-6 77q-2 10 -16 11q-57 0 -88 -25q-31 -26 -31 -62t33 -36 q16 0 25 10t9 24t-10 13q-10 0 -10 -8l6 -15q1 -18 -21 -18t-22 36t34 54t66 18q10 0 11 -26l6 -119q0 -4 4 -4q25 0 61 76l4 -72q0 -4 11 -4q35 16 52 55t17 69zM471 723h2q18 0 19 -33v-2q0 -45 -25 -45q-18 0 -18 25v4q-1 51 22 51zM481 731q-21 0 -35 -18 q-14 -19 -14 -35t1 -22t9 -12q8 -7 21 -7q45 0 45 59q0 35 -27 35zM522 709q0 8 10 8t11 -25l-8 -51l4 -4q14 0 14 8v2q0 66 16 66h2l9 -4l8 8q0 14 -15 14l-10 -10q0 -1 -8 -21q-7 31 -14 31t-17 -8t-10 -16l4 -9l4 4v7zM641 700v-12q0 -8 -7 -24t-22 -17q-14 0 -14 24 t8 31q9 21 22 21t13 -23zM641 659v-8q0 -16 10 -16q11 0 19 8t10 16l-4 5q-4 -1 -4 -9t-8 -8q-8 -1 -8 7t6 71v6q10 50 10 57t-20 7q-20 -1 -19 -7q0 -6 4 -5t10 1t6 -6q0 -59 -8 -59l-2 2q-1 8 -19 8q-18 1 -30 -23t-12 -46t22 -23q16 0 26 11t11 11zM716 721l21 -8 q6 0 6 8t-14 8h-2q-33 0 -33 -24q0 -14 18 -26q18 -11 19 -14q2 -3 2 -13t-16 -9q-16 0 -17 8v2q0 8 -8 9q-6 0 -6 -7q0 -18 30 -18t29 27q0 12 -15 23t-19 15t-4 12t9 7zM822 631q16 0 22 18l2 4q0 4 -4 4q-4 -2 -4 -6q-4 -10 -10 -10t-7 4q0 4 5 21t5 41q0 25 -24 24 q-12 0 -19 -9q-6 -9 -6 -11l-4 -4h-2l12 84q0 4 -20 4t-18 -9q0 -2 6 -2h8q6 0 6 -8l-6 -53v-2q-4 -41 -8 -59l-4 -21q0 -2 9 -2t9 4v16q13 60 33 60q14 0 14 -10v-4l-12 -64q1 -10 17 -10zM881 647q-13 0 -13 30t27 46q14 0 14 -38t-28 -38zM925 645q-5 1 -5 19t6 36t6 21 l2 2v2q0 2 -6 2h-2q-8 0 -10 -5t-3 -5q-8 12 -20 12t-35 -33q-6 -18 -6 -32q0 -27 22 -27q11 0 31 20q2 0 2 -4v-8q-1 -8 9 -8t19 6t9 12t-4 7q-10 -17 -15 -17zM977 717q0 4 10 4q25 0 25 -39t-25 -39q-16 0 -16 14v5l6 47v8zM973 764v-2q-6 0 -6 -6l-2 -19v-6 q0 -8 -15 -15q-14 -6 -14 -14t4 -8l16 15q0 4 5 4l2 -2l-11 -76q0 -23 -8 -23h-8q-2 0 -2 -2q0 -10 24 -10t22 4q-1 4 -3 4h-6q-6 0 -6 16t4 17q12 -4 23 -4q12 0 24 14t12 39q0 39 -33 39q-8 -2 -14 -2l-2 2l4 31l-4 4h-6zM1065 719h2q12 -1 12 -21t-18 -20q-10 0 -10 10 t5 21q5 10 9 10zM1055 672h2q17 0 27 15t10 24q0 18 -18 18t-29 -20q-13 -20 -13 -44t15 -24q8 -4 18 -4t22 6t13 14q0 4 -4 5q-4 0 -4 -5q-8 -14 -23 -14q-20 0 -20 25q0 4 4 4z" glyph-name="summation" horiz-adv-x="1261" unicode="∑"/><glyph d="M1065 614h-909v84h909v-84z" glyph-name="minus" horiz-adv-x="1251" unicode="−"/><glyph d="M109 188v1080h1079v-1080h-1079zM440 763q0 30 -8 30q-16 -1 -16 -5t5 -4t5 -44t-33 -73q-10 -11 -14 -12q-4 0 -4 13l-4 116q2 2 2 6t-4 5l-17 -11q4 -45 4 -52t-22 -39q-22 -31 -26 -31q-3 0 -3 47t-6 77q-2 10 -16 11q-57 0 -88 -25q-31 -26 -31 -62t33 -36 q16 0 25 10t9 24t-10 13q-10 0 -10 -8l6 -15q1 -18 -21 -18t-22 36t34 54t66 18q10 0 11 -26l6 -119q0 -4 4 -4q25 0 61 76l4 -72q0 -4 11 -4q35 16 52 55t17 69zM471 723h2q18 0 19 -33v-2q0 -45 -25 -45q-18 0 -18 25v4q-1 51 22 51zM481 731q-21 0 -35 -18 q-14 -19 -14 -35t1 -22t9 -12q8 -7 21 -7q45 0 45 59q0 35 -27 35zM522 709q0 8 10 8t11 -25l-8 -51l4 -4q14 0 14 8v2q0 66 16 66h2l9 -4l8 8q0 14 -15 14l-10 -10q0 -1 -8 -21q-7 31 -14 31t-17 -8t-10 -16l4 -9l4 4v7zM641 700v-12q0 -8 -7 -24t-22 -17q-14 0 -14 24 t8 31q9 21 22 21t13 -23zM641 659v-8q0 -16 10 -16q11 0 19 8t10 16l-4 5q-4 -1 -4 -9t-8 -8q-8 -1 -8 7t6 71v6q10 50 10 57t-20 7q-20 -1 -19 -7q0 -6 4 -5t10 1t6 -6q0 -59 -8 -59l-2 2q-1 8 -19 8q-18 1 -30 -23t-12 -46t22 -23q16 0 26 11t11 11zM716 721l21 -8 q6 0 6 8t-14 8h-2q-33 0 -33 -24q0 -14 18 -26q18 -11 19 -14q2 -3 2 -13t-16 -9q-16 0 -17 8v2q0 8 -8 9q-6 0 -6 -7q0 -18 30 -18t29 27q0 12 -15 23t-19 15t-4 12t9 7zM822 631q16 0 22 18l2 4q0 4 -4 4q-4 -2 -4 -6q-4 -10 -10 -10t-7 4q0 4 5 21t5 41q0 25 -24 24 q-12 0 -19 -9q-6 -9 -6 -11l-4 -4h-2l12 84q0 4 -20 4t-18 -9q0 -2 6 -2h8q6 0 6 -8l-6 -53v-2q-4 -41 -8 -59l-4 -21q0 -2 9 -2t9 4v16q13 60 33 60q14 0 14 -10v-4l-12 -64q1 -10 17 -10zM881 647q-13 0 -13 30t27 46q14 0 14 -38t-28 -38zM925 645q-5 1 -5 19t6 36t6 21 l2 2v2q0 2 -6 2h-2q-8 0 -10 -5t-3 -5q-8 12 -20 12t-35 -33q-6 -18 -6 -32q0 -27 22 -27q11 0 31 20q2 0 2 -4v-8q-1 -8 9 -8t19 6t9 12t-4 7q-10 -17 -15 -17zM977 717q0 4 10 4q25 0 25 -39t-25 -39q-16 0 -16 14v5l6 47v8zM973 764v-2q-6 0 -6 -6l-2 -19v-6 q0 -8 -15 -15q-14 -6 -14 -14t4 -8l16 15q0 4 5 4l2 -2l-11 -76q0 -23 -8 -23h-8q-2 0 -2 -2q0 -10 24 -10t22 4q-1 4 -3 4h-6q-6 0 -6 16t4 17q12 -4 23 -4q12 0 24 14t12 39q0 39 -33 39q-8 -2 -14 -2l-2 2l4 31l-4 4h-6zM1065 719h2q12 -1 12 -21t-18 -20q-10 0 -10 10 t5 21q5 10 9 10zM1055 672h2q17 0 27 15t10 24q0 18 -18 18t-29 -20q-13 -20 -13 -44t15 -24q8 -4 18 -4t22 6t13 14q0 4 -4 5q-4 0 -4 -5q-8 -14 -23 -14q-20 0 -20 25q0 4 4 4z" glyph-name="radical" horiz-adv-x="1261" unicode="√"/><glyph d="M154 700q0 -120 46 -184t136 -64t148 74t79 176v5q-19 96 -79 169q-60 72 -149 72t-135 -64t-46 -184zM1059 700q0 118 -46 184q-46 64 -136 64t-149 -74t-79 -176v-4q19 -96 79 -169t150 -73t135 66q46 64 46 182zM322 377q-115 0 -188 82q-73 83 -73 241t73 241t188 83 q178 0 284 -211q102 211 285 211q115 0 187 -83t73 -242q0 -159 -73 -241t-187 -81q-179 0 -277 203h-16q-96 -203 -276 -203z" glyph-name="infinity" horiz-adv-x="1343" unicode="∞"/><glyph d="M109 188v1080h1079v-1080h-1079zM440 763q0 30 -8 30q-16 -1 -16 -5t5 -4t5 -44t-33 -73q-10 -11 -14 -12q-4 0 -4 13l-4 116q2 2 2 6t-4 5l-17 -11q4 -45 4 -52t-22 -39q-22 -31 -26 -31q-3 0 -3 47t-6 77q-2 10 -16 11q-57 0 -88 -25q-31 -26 -31 -62t33 -36 q16 0 25 10t9 24t-10 13q-10 0 -10 -8l6 -15q1 -18 -21 -18t-22 36t34 54t66 18q10 0 11 -26l6 -119q0 -4 4 -4q25 0 61 76l4 -72q0 -4 11 -4q35 16 52 55t17 69zM471 723h2q18 0 19 -33v-2q0 -45 -25 -45q-18 0 -18 25v4q-1 51 22 51zM481 731q-21 0 -35 -18 q-14 -19 -14 -35t1 -22t9 -12q8 -7 21 -7q45 0 45 59q0 35 -27 35zM522 709q0 8 10 8t11 -25l-8 -51l4 -4q14 0 14 8v2q0 66 16 66h2l9 -4l8 8q0 14 -15 14l-10 -10q0 -1 -8 -21q-7 31 -14 31t-17 -8t-10 -16l4 -9l4 4v7zM641 700v-12q0 -8 -7 -24t-22 -17q-14 0 -14 24 t8 31q9 21 22 21t13 -23zM641 659v-8q0 -16 10 -16q11 0 19 8t10 16l-4 5q-4 -1 -4 -9t-8 -8q-8 -1 -8 7t6 71v6q10 50 10 57t-20 7q-20 -1 -19 -7q0 -6 4 -5t10 1t6 -6q0 -59 -8 -59l-2 2q-1 8 -19 8q-18 1 -30 -23t-12 -46t22 -23q16 0 26 11t11 11zM716 721l21 -8 q6 0 6 8t-14 8h-2q-33 0 -33 -24q0 -14 18 -26q18 -11 19 -14q2 -3 2 -13t-16 -9q-16 0 -17 8v2q0 8 -8 9q-6 0 -6 -7q0 -18 30 -18t29 27q0 12 -15 23t-19 15t-4 12t9 7zM822 631q16 0 22 18l2 4q0 4 -4 4q-4 -2 -4 -6q-4 -10 -10 -10t-7 4q0 4 5 21t5 41q0 25 -24 24 q-12 0 -19 -9q-6 -9 -6 -11l-4 -4h-2l12 84q0 4 -20 4t-18 -9q0 -2 6 -2h8q6 0 6 -8l-6 -53v-2q-4 -41 -8 -59l-4 -21q0 -2 9 -2t9 4v16q13 60 33 60q14 0 14 -10v-4l-12 -64q1 -10 17 -10zM881 647q-13 0 -13 30t27 46q14 0 14 -38t-28 -38zM925 645q-5 1 -5 19t6 36t6 21 l2 2v2q0 2 -6 2h-2q-8 0 -10 -5t-3 -5q-8 12 -20 12t-35 -33q-6 -18 -6 -32q0 -27 22 -27q11 0 31 20q2 0 2 -4v-8q-1 -8 9 -8t19 6t9 12t-4 7q-10 -17 -15 -17zM977 717q0 4 10 4q25 0 25 -39t-25 -39q-16 0 -16 14v5l6 47v8zM973 764v-2q-6 0 -6 -6l-2 -19v-6 q0 -8 -15 -15q-14 -6 -14 -14t4 -8l16 15q0 4 5 4l2 -2l-11 -76q0 -23 -8 -23h-8q-2 0 -2 -2q0 -10 24 -10t22 4q-1 4 -3 4h-6q-6 0 -6 16t4 17q12 -4 23 -4q12 0 24 14t12 39q0 39 -33 39q-8 -2 -14 -2l-2 2l4 31l-4 4h-6zM1065 719h2q12 -1 12 -21t-18 -20q-10 0 -10 10 t5 21q5 10 9 10zM1055 672h2q17 0 27 15t10 24q0 18 -18 18t-29 -20q-13 -20 -13 -44t15 -24q8 -4 18 -4t22 6t13 14q0 4 -4 5q-4 0 -4 -5q-8 -14 -23 -14q-20 0 -20 25q0 4 4 4z" glyph-name="integral" horiz-adv-x="1261" unicode="∫"/><glyph d="M109 188v1080h1079v-1080h-1079zM440 763q0 30 -8 30q-16 -1 -16 -5t5 -4t5 -44t-33 -73q-10 -11 -14 -12q-4 0 -4 13l-4 116q2 2 2 6t-4 5l-17 -11q4 -45 4 -52t-22 -39q-22 -31 -26 -31q-3 0 -3 47t-6 77q-2 10 -16 11q-57 0 -88 -25q-31 -26 -31 -62t33 -36 q16 0 25 10t9 24t-10 13q-10 0 -10 -8l6 -15q1 -18 -21 -18t-22 36t34 54t66 18q10 0 11 -26l6 -119q0 -4 4 -4q25 0 61 76l4 -72q0 -4 11 -4q35 16 52 55t17 69zM471 723h2q18 0 19 -33v-2q0 -45 -25 -45q-18 0 -18 25v4q-1 51 22 51zM481 731q-21 0 -35 -18 q-14 -19 -14 -35t1 -22t9 -12q8 -7 21 -7q45 0 45 59q0 35 -27 35zM522 709q0 8 10 8t11 -25l-8 -51l4 -4q14 0 14 8v2q0 66 16 66h2l9 -4l8 8q0 14 -15 14l-10 -10q0 -1 -8 -21q-7 31 -14 31t-17 -8t-10 -16l4 -9l4 4v7zM641 700v-12q0 -8 -7 -24t-22 -17q-14 0 -14 24 t8 31q9 21 22 21t13 -23zM641 659v-8q0 -16 10 -16q11 0 19 8t10 16l-4 5q-4 -1 -4 -9t-8 -8q-8 -1 -8 7t6 71v6q10 50 10 57t-20 7q-20 -1 -19 -7q0 -6 4 -5t10 1t6 -6q0 -59 -8 -59l-2 2q-1 8 -19 8q-18 1 -30 -23t-12 -46t22 -23q16 0 26 11t11 11zM716 721l21 -8 q6 0 6 8t-14 8h-2q-33 0 -33 -24q0 -14 18 -26q18 -11 19 -14q2 -3 2 -13t-16 -9q-16 0 -17 8v2q0 8 -8 9q-6 0 -6 -7q0 -18 30 -18t29 27q0 12 -15 23t-19 15t-4 12t9 7zM822 631q16 0 22 18l2 4q0 4 -4 4q-4 -2 -4 -6q-4 -10 -10 -10t-7 4q0 4 5 21t5 41q0 25 -24 24 q-12 0 -19 -9q-6 -9 -6 -11l-4 -4h-2l12 84q0 4 -20 4t-18 -9q0 -2 6 -2h8q6 0 6 -8l-6 -53v-2q-4 -41 -8 -59l-4 -21q0 -2 9 -2t9 4v16q13 60 33 60q14 0 14 -10v-4l-12 -64q1 -10 17 -10zM881 647q-13 0 -13 30t27 46q14 0 14 -38t-28 -38zM925 645q-5 1 -5 19t6 36t6 21 l2 2v2q0 2 -6 2h-2q-8 0 -10 -5t-3 -5q-8 12 -20 12t-35 -33q-6 -18 -6 -32q0 -27 22 -27q11 0 31 20q2 0 2 -4v-8q-1 -8 9 -8t19 6t9 12t-4 7q-10 -17 -15 -17zM977 717q0 4 10 4q25 0 25 -39t-25 -39q-16 0 -16 14v5l6 47v8zM973 764v-2q-6 0 -6 -6l-2 -19v-6 q0 -8 -15 -15q-14 -6 -14 -14t4 -8l16 15q0 4 5 4l2 -2l-11 -76q0 -23 -8 -23h-8q-2 0 -2 -2q0 -10 24 -10t22 4q-1 4 -3 4h-6q-6 0 -6 16t4 17q12 -4 23 -4q12 0 24 14t12 39q0 39 -33 39q-8 -2 -14 -2l-2 2l4 31l-4 4h-6zM1065 719h2q12 -1 12 -21t-18 -20q-10 0 -10 10 t5 21q5 10 9 10zM1055 672h2q17 0 27 15t10 24q0 18 -18 18t-29 -20q-13 -20 -13 -44t15 -24q8 -4 18 -4t22 6t13 14q0 4 -4 5q-4 0 -4 -5q-8 -14 -23 -14q-20 0 -20 25q0 4 4 4z" glyph-name="approxequal" horiz-adv-x="1261" unicode="≈"/><glyph d="M1114 348h-567q-74 -119 -139 -217h-134l144 217h-215v86h270l250 395h-520v82h573q74 119 139 217h125l-135 -217h209v-82h-262l-250 -395h512v-86z" glyph-name="notequal" horiz-adv-x="1316" unicode="≠"/><glyph d="M1028 10h-862v76h862v-76zM1032 332l-858 389v45q171 74 858 387v-106l-700 -304q279 -119 700 -303v-108z" glyph-name="lessequal" horiz-adv-x="1218" unicode="≤"/><glyph d="M991 20h-801v68h801v-68zM176 1153q171 -74 858 -387v-45q-145 -63 -430 -195t-428 -194v108l701 303l-701 304v106z" glyph-name="greaterequal" horiz-adv-x="1218" unicode="≥"/><glyph d="M109 188v1080h1079v-1080h-1079zM440 763q0 30 -8 30q-16 -1 -16 -5t5 -4t5 -44t-33 -73q-10 -11 -14 -12q-4 0 -4 13l-4 116q2 2 2 6t-4 5l-17 -11q4 -45 4 -52t-22 -39q-22 -31 -26 -31q-3 0 -3 47t-6 77q-2 10 -16 11q-57 0 -88 -25q-31 -26 -31 -62t33 -36 q16 0 25 10t9 24t-10 13q-10 0 -10 -8l6 -15q1 -18 -21 -18t-22 36t34 54t66 18q10 0 11 -26l6 -119q0 -4 4 -4q25 0 61 76l4 -72q0 -4 11 -4q35 16 52 55t17 69zM471 723h2q18 0 19 -33v-2q0 -45 -25 -45q-18 0 -18 25v4q-1 51 22 51zM481 731q-21 0 -35 -18 q-14 -19 -14 -35t1 -22t9 -12q8 -7 21 -7q45 0 45 59q0 35 -27 35zM522 709q0 8 10 8t11 -25l-8 -51l4 -4q14 0 14 8v2q0 66 16 66h2l9 -4l8 8q0 14 -15 14l-10 -10q0 -1 -8 -21q-7 31 -14 31t-17 -8t-10 -16l4 -9l4 4v7zM641 700v-12q0 -8 -7 -24t-22 -17q-14 0 -14 24 t8 31q9 21 22 21t13 -23zM641 659v-8q0 -16 10 -16q11 0 19 8t10 16l-4 5q-4 -1 -4 -9t-8 -8q-8 -1 -8 7t6 71v6q10 50 10 57t-20 7q-20 -1 -19 -7q0 -6 4 -5t10 1t6 -6q0 -59 -8 -59l-2 2q-1 8 -19 8q-18 1 -30 -23t-12 -46t22 -23q16 0 26 11t11 11zM716 721l21 -8 q6 0 6 8t-14 8h-2q-33 0 -33 -24q0 -14 18 -26q18 -11 19 -14q2 -3 2 -13t-16 -9q-16 0 -17 8v2q0 8 -8 9q-6 0 -6 -7q0 -18 30 -18t29 27q0 12 -15 23t-19 15t-4 12t9 7zM822 631q16 0 22 18l2 4q0 4 -4 4q-4 -2 -4 -6q-4 -10 -10 -10t-7 4q0 4 5 21t5 41q0 25 -24 24 q-12 0 -19 -9q-6 -9 -6 -11l-4 -4h-2l12 84q0 4 -20 4t-18 -9q0 -2 6 -2h8q6 0 6 -8l-6 -53v-2q-4 -41 -8 -59l-4 -21q0 -2 9 -2t9 4v16q13 60 33 60q14 0 14 -10v-4l-12 -64q1 -10 17 -10zM881 647q-13 0 -13 30t27 46q14 0 14 -38t-28 -38zM925 645q-5 1 -5 19t6 36t6 21 l2 2v2q0 2 -6 2h-2q-8 0 -10 -5t-3 -5q-8 12 -20 12t-35 -33q-6 -18 -6 -32q0 -27 22 -27q11 0 31 20q2 0 2 -4v-8q-1 -8 9 -8t19 6t9 12t-4 7q-10 -17 -15 -17zM977 717q0 4 10 4q25 0 25 -39t-25 -39q-16 0 -16 14v5l6 47v8zM973 764v-2q-6 0 -6 -6l-2 -19v-6 q0 -8 -15 -15q-14 -6 -14 -14t4 -8l16 15q0 4 5 4l2 -2l-11 -76q0 -23 -8 -23h-8q-2 0 -2 -2q0 -10 24 -10t22 4q-1 4 -3 4h-6q-6 0 -6 16t4 17q12 -4 23 -4q12 0 24 14t12 39q0 39 -33 39q-8 -2 -14 -2l-2 2l4 31l-4 4h-6zM1065 719h2q12 -1 12 -21t-18 -20q-10 0 -10 10 t5 21q5 10 9 10zM1055 672h2q17 0 27 15t10 24q0 18 -18 18t-29 -20q-13 -20 -13 -44t15 -24q8 -4 18 -4t22 6t13 14q0 4 -4 5q-4 0 -4 -5q-8 -14 -23 -14q-20 0 -20 25q0 4 4 4z" glyph-name="lozenge" horiz-adv-x="1261" unicode="◊"/><glyph d="M150 -332v209h139v-219q-17 -158 -107 -264q-29 12 -53 22q68 96 76 252h-55z" glyph-name="uniF6C3" horiz-adv-x="479" unicode=""/><glyph d="M109 188v1080h1079v-1080h-1079zM440 763q0 30 -8 30q-16 -1 -16 -5t5 -4t5 -44t-33 -73q-10 -11 -14 -12q-4 0 -4 13l-4 116q2 2 2 6t-4 5l-17 -11q4 -45 4 -52t-22 -39q-22 -31 -26 -31q-3 0 -3 47t-6 77q-2 10 -16 11q-57 0 -88 -25q-31 -26 -31 -62t33 -36 q16 0 25 10t9 24t-10 13q-10 0 -10 -8l6 -15q1 -18 -21 -18t-22 36t34 54t66 18q10 0 11 -26l6 -119q0 -4 4 -4q25 0 61 76l4 -72q0 -4 11 -4q35 16 52 55t17 69zM471 723h2q18 0 19 -33v-2q0 -45 -25 -45q-18 0 -18 25v4q-1 51 22 51zM481 731q-21 0 -35 -18 q-14 -19 -14 -35t1 -22t9 -12q8 -7 21 -7q45 0 45 59q0 35 -27 35zM522 709q0 8 10 8t11 -25l-8 -51l4 -4q14 0 14 8v2q0 66 16 66h2l9 -4l8 8q0 14 -15 14l-10 -10q0 -1 -8 -21q-7 31 -14 31t-17 -8t-10 -16l4 -9l4 4v7zM641 700v-12q0 -8 -7 -24t-22 -17q-14 0 -14 24 t8 31q9 21 22 21t13 -23zM641 659v-8q0 -16 10 -16q11 0 19 8t10 16l-4 5q-4 -1 -4 -9t-8 -8q-8 -1 -8 7t6 71v6q10 50 10 57t-20 7q-20 -1 -19 -7q0 -6 4 -5t10 1t6 -6q0 -59 -8 -59l-2 2q-1 8 -19 8q-18 1 -30 -23t-12 -46t22 -23q16 0 26 11t11 11zM716 721l21 -8 q6 0 6 8t-14 8h-2q-33 0 -33 -24q0 -14 18 -26q18 -11 19 -14q2 -3 2 -13t-16 -9q-16 0 -17 8v2q0 8 -8 9q-6 0 -6 -7q0 -18 30 -18t29 27q0 12 -15 23t-19 15t-4 12t9 7zM822 631q16 0 22 18l2 4q0 4 -4 4q-4 -2 -4 -6q-4 -10 -10 -10t-7 4q0 4 5 21t5 41q0 25 -24 24 q-12 0 -19 -9q-6 -9 -6 -11l-4 -4h-2l12 84q0 4 -20 4t-18 -9q0 -2 6 -2h8q6 0 6 -8l-6 -53v-2q-4 -41 -8 -59l-4 -21q0 -2 9 -2t9 4v16q13 60 33 60q14 0 14 -10v-4l-12 -64q1 -10 17 -10zM881 647q-13 0 -13 30t27 46q14 0 14 -38t-28 -38zM925 645q-5 1 -5 19t6 36t6 21 l2 2v2q0 2 -6 2h-2q-8 0 -10 -5t-3 -5q-8 12 -20 12t-35 -33q-6 -18 -6 -32q0 -27 22 -27q11 0 31 20q2 0 2 -4v-8q-1 -8 9 -8t19 6t9 12t-4 7q-10 -17 -15 -17zM977 717q0 4 10 4q25 0 25 -39t-25 -39q-16 0 -16 14v5l6 47v8zM973 764v-2q-6 0 -6 -6l-2 -19v-6 q0 -8 -15 -15q-14 -6 -14 -14t4 -8l16 15q0 4 5 4l2 -2l-11 -76q0 -23 -8 -23h-8q-2 0 -2 -2q0 -10 24 -10t22 4q-1 4 -3 4h-6q-6 0 -6 16t4 17q12 -4 23 -4q12 0 24 14t12 39q0 39 -33 39q-8 -2 -14 -2l-2 2l4 31l-4 4h-6zM1065 719h2q12 -1 12 -21t-18 -20q-10 0 -10 10 t5 21q5 10 9 10zM1055 672h2q17 0 27 15t10 24q0 18 -18 18t-29 -20q-13 -20 -13 -44t15 -24q8 -4 18 -4t22 6t13 14q0 4 -4 5q-4 0 -4 -5q-8 -14 -23 -14q-20 0 -20 25q0 4 4 4z" glyph-name="uniF8FF" horiz-adv-x="1261" unicode=""/><glyph d="M866 0h-92v1032h92v-1032zM541 1407q-203 0 -203 -211v-164h305v-76h-305v-956h-92v956h-187v76h187v164q0 133 78 211t206 78q89 0 146 -12l-10 -78q-55 12 -125 12z" glyph-name="uniFB01" horiz-adv-x="1003" unicode="ﬁ"/><glyph d="M852 0v1470h88v-1470h-88zM541 1407q-203 0 -203 -211v-164h305v-76h-305v-956h-92v956h-187v76h187v164q0 133 78 211t206 78q89 0 146 -12l-10 -78q-55 12 -125 12z" glyph-name="uniFB02" horiz-adv-x="1101" unicode="ﬂ"/><glyph d="M311 1489v211h140v-221q-17 -156 -107 -265q-27 12 -53 23q68 100 76 252h-56z" glyph-name="glyph307" horiz-adv-x="749"/><glyph d="M506 1163q58 58 262 246l29 -29q18 -18 28 -26l-290 -219zM579 987q-164 -1 -261 -111t-107 -298h711q-2 182 -90 296t-253 113zM580 47q268 0 323 227h92q-29 -139 -139 -221t-276 -82q-215 1 -339 149t-124 392t126 398q127 154 337 153q210 0 324 -142t114 -360 l-2 -63h-809q4 -193 101 -322t272 -129z" glyph-name="glyph308" horiz-adv-x="1165"/></font>
</defs>
</svg>
